<?xml version="1.0" encoding="utf-8"?>
<!-- Generator: Adobe Illustrator 26.2.1, SVG Export Plug-In . SVG Version: 6.00 Build 0)  -->
<svg version="1.1" id="Layer_1" xmlns="http://www.w3.org/2000/svg" xmlns:xlink="http://www.w3.org/1999/xlink" x="0px" y="0px"
	 viewBox="0 0 134.8 34.3" style="enable-background:new 0 0 134.8 34.3;" xml:space="preserve">
<style type="text/css">
	.st0{opacity:0.7;enable-background:new    ;}
	.st1{fill:#FFFFFF;}
</style>
<g id="svg_10_00000130604892231542901900000002953640234386555290_" class="st0">
	<g id="svg_1_00000145044111803009325530000009498982653363421320_">
		<path class="st1" d="M53.8,22.4c-0.1-0.1-0.1-0.3-0.2-0.5c-0.1-0.2-0.1-0.4-0.1-0.6c-0.2,0.2-0.3,0.3-0.5,0.5
			c-0.2,0.2-0.4,0.3-0.7,0.4c-0.2,0.1-0.5,0.2-0.9,0.3s-0.6,0.1-1,0.1c-0.6,0-1.1-0.1-1.6-0.2c-0.5-0.2-0.9-0.4-1.3-0.7
			c-0.3-0.3-0.6-0.6-0.8-1.1c-0.2-0.4-0.3-0.9-0.3-1.4c0-1.2,0.4-2.1,1.3-2.8c0.9-0.6,2.2-1,4-1h1.6v-0.7c0-0.5-0.2-1-0.5-1.3
			c-0.3-0.3-0.9-0.5-1.6-0.5c-0.6,0-1,0.1-1.3,0.4c-0.3,0.2-0.4,0.6-0.4,1h-2.9c0-0.5,0.1-1,0.3-1.4c0.2-0.4,0.5-0.8,1-1.2
			c0.4-0.3,0.9-0.6,1.5-0.8c0.6-0.2,1.3-0.3,2-0.3c0.7,0,1.3,0.1,1.9,0.2c0.6,0.2,1.1,0.4,1.6,0.7c0.4,0.3,0.8,0.7,1,1.3
			c0.2,0.5,0.4,1.1,0.4,1.7v4.9c0,0.6,0,1.1,0.1,1.5c0.1,0.4,0.2,0.7,0.3,1v0.2L53.8,22.4L53.8,22.4L53.8,22.4z M51,20.3
			c0.3,0,0.6,0,0.8-0.1c0.2-0.1,0.5-0.2,0.7-0.3c0.2-0.1,0.4-0.2,0.5-0.4c0.1-0.1,0.3-0.3,0.3-0.4v-2h-1.5c-0.4,0-0.9,0-1.2,0.1
			c-0.3,0.1-0.6,0.2-0.8,0.4c-0.2,0.2-0.3,0.3-0.4,0.6c-0.1,0.2-0.1,0.4-0.1,0.7c0,0.4,0.1,0.7,0.4,1C50,20.2,50.4,20.3,51,20.3
			L51,20.3z"/>
	</g>
	<g id="svg_2_00000056400127422265120520000016726799750549028792_">
		<path class="st1" d="M67.8,10.8c0.4,0,0.9,0,1.2,0.1c0.4,0.1,0.7,0.1,0.9,0.2L69.5,14c-0.4-0.1-0.8-0.2-1.2-0.2
			c-0.4-0.1-0.8-0.1-1.2-0.1c-0.8,0-1.5,0.2-2,0.5c-0.5,0.3-0.9,0.8-1.1,1.4v6.8h-2.9V11h2.7l0.1,1.9c0.5-0.6,1-1.2,1.7-1.5
			C66.3,11,67,10.8,67.8,10.8L67.8,10.8z"/>
	</g>
	<g id="svg_3_00000125577659648843790990000012637028043341384099_">
		<path class="st1" d="M79.9,18.8l1-7.8h2.7l-2,11.4h-2.6l-1.5-7.2L76,22.4h-2.6l-2-11.4h2.7l1,7.9l1.4-7.9h2L79.9,18.8L79.9,18.8z"
			/>
	</g>
	<g id="svg_4_00000143580284301378325450000014312750712578789519_">
		<path class="st1" d="M91.1,22.6c-0.9,0-1.7-0.1-2.4-0.4c-0.7-0.3-1.3-0.7-1.8-1.2c-0.5-0.5-0.9-1.1-1.2-1.7
			c-0.3-0.7-0.4-1.4-0.4-2.1v-0.4c0-0.9,0.1-1.7,0.4-2.4c0.3-0.7,0.6-1.3,1.2-1.9c0.5-0.5,1.1-0.9,1.7-1.2c0.7-0.3,1.4-0.4,2.2-0.4
			c0.8,0,1.6,0.1,2.2,0.4c0.6,0.3,1.2,0.6,1.6,1.1c0.4,0.5,0.8,1.1,1,1.8c0.2,0.7,0.3,1.5,0.3,2.3v1.3h-7.7c0.1,0.4,0.2,0.7,0.3,1.1
			s0.4,0.6,0.6,0.8c0.3,0.2,0.6,0.4,0.9,0.5c0.3,0.1,0.7,0.2,1.1,0.2c0.3,0,0.6,0,0.9-0.1c0.3-0.1,0.6-0.1,0.8-0.2
			c0.3-0.1,0.5-0.2,0.7-0.4c0.2-0.2,0.4-0.3,0.6-0.6l1.5,1.6c-0.2,0.3-0.4,0.5-0.7,0.8c-0.3,0.2-0.6,0.5-1,0.7
			c-0.4,0.2-0.8,0.3-1.3,0.5C92.2,22.6,91.6,22.6,91.1,22.6L91.1,22.6z M90.7,13.2c-0.3,0-0.6,0.1-0.9,0.2c-0.3,0.1-0.5,0.3-0.7,0.5
			c-0.2,0.2-0.4,0.5-0.5,0.8c-0.1,0.3-0.2,0.6-0.3,1H93v-0.2c0-0.3-0.1-0.6-0.2-0.9c-0.1-0.3-0.3-0.5-0.4-0.7
			c-0.2-0.2-0.4-0.4-0.7-0.5C91.4,13.2,91.1,13.2,90.7,13.2L90.7,13.2z"/>
	</g>
	<g id="svg_5_00000140002142720267746440000003513836005932227209_">
		<path class="st1" d="M105.6,22.4c-0.1-0.1-0.1-0.3-0.2-0.5c0-0.2-0.1-0.4-0.1-0.6c-0.2,0.2-0.3,0.3-0.5,0.5
			c-0.2,0.2-0.4,0.3-0.7,0.4c-0.2,0.1-0.5,0.2-0.9,0.3c-0.3,0.1-0.6,0.1-1,0.1c-0.6,0-1.1-0.1-1.6-0.2c-0.5-0.2-0.9-0.4-1.3-0.7
			c-0.3-0.3-0.6-0.6-0.8-1.1c-0.2-0.4-0.3-0.9-0.3-1.4c0-1.2,0.4-2.1,1.3-2.8c0.9-0.6,2.2-1,4-1h1.6v-0.7c0-0.5-0.2-1-0.5-1.3
			c-0.3-0.3-0.9-0.5-1.6-0.5c-0.6,0-1,0.1-1.3,0.4c-0.3,0.2-0.4,0.6-0.4,1h-2.9c0-0.5,0.1-1,0.3-1.4s0.5-0.8,1-1.2
			c0.4-0.3,0.9-0.6,1.5-0.8c0.6-0.2,1.3-0.3,2-0.3c0.7,0,1.3,0.1,1.9,0.2c0.6,0.2,1.1,0.4,1.6,0.7c0.4,0.3,0.8,0.7,1,1.3
			c0.2,0.5,0.4,1.1,0.4,1.7v4.9c0,0.6,0,1.1,0.1,1.5s0.2,0.7,0.3,1v0.2L105.6,22.4L105.6,22.4L105.6,22.4z M102.8,20.3
			c0.3,0,0.6,0,0.8-0.1c0.2-0.1,0.5-0.2,0.7-0.3c0.2-0.1,0.4-0.2,0.5-0.4c0.1-0.1,0.3-0.3,0.3-0.4v-2h-1.5c-0.4,0-0.9,0-1.2,0.1
			c-0.3,0.1-0.6,0.2-0.8,0.4c-0.2,0.2-0.3,0.3-0.4,0.6c-0.1,0.2-0.1,0.4-0.1,0.7c0,0.4,0.1,0.7,0.4,1
			C101.8,20.2,102.3,20.3,102.8,20.3L102.8,20.3z"/>
	</g>
	<g id="svg_6_00000085248827502066806650000009380032194583613352_">
		<path class="st1" d="M116.3,19l0.1,0.8l0.1-0.8l2.5-8.1h3.1l-4.3,11.4h-2.8L110.7,11h3.1L116.3,19L116.3,19z"/>
	</g>
	<g id="svg_7_00000026156867955356950630000001451669194922595225_">
		<path class="st1" d="M129.9,22.6c-0.9,0-1.7-0.1-2.4-0.4s-1.3-0.7-1.8-1.2c-0.5-0.5-0.9-1.1-1.2-1.7c-0.3-0.7-0.4-1.4-0.4-2.1
			v-0.4c0-0.9,0.1-1.7,0.4-2.4c0.3-0.7,0.6-1.3,1.2-1.9c0.5-0.5,1.1-0.9,1.7-1.2c0.7-0.3,1.4-0.4,2.2-0.4c0.8,0,1.6,0.1,2.2,0.4
			c0.6,0.3,1.2,0.6,1.6,1.1c0.4,0.5,0.8,1.1,1,1.8c0.2,0.7,0.3,1.5,0.3,2.3v1.3h-7.7c0.1,0.4,0.2,0.7,0.3,1.1s0.4,0.6,0.6,0.8
			c0.3,0.2,0.6,0.4,0.9,0.5s0.7,0.2,1.1,0.2c0.3,0,0.6,0,0.9-0.1c0.3-0.1,0.6-0.1,0.8-0.2c0.3-0.1,0.5-0.2,0.7-0.4
			c0.2-0.2,0.4-0.3,0.6-0.6l1.5,1.6c-0.2,0.3-0.4,0.5-0.7,0.8c-0.3,0.2-0.6,0.5-1,0.7c-0.4,0.2-0.8,0.3-1.3,0.5
			C131,22.6,130.5,22.6,129.9,22.6L129.9,22.6z M129.6,13.2c-0.3,0-0.6,0.1-0.9,0.2c-0.3,0.1-0.5,0.3-0.7,0.5
			c-0.2,0.2-0.4,0.5-0.5,0.8c-0.1,0.3-0.2,0.6-0.3,1h4.8v-0.2c0-0.3-0.1-0.6-0.2-0.9c-0.1-0.3-0.3-0.5-0.4-0.7
			c-0.2-0.2-0.4-0.4-0.7-0.5C130.3,13.2,130,13.2,129.6,13.2L129.6,13.2z"/>
	</g>
	<g id="svg_8_00000053540577895762578950000000269627117590172049_">
		<path class="st1" d="M16.4,33.9c-4.4,0-8.5-1.7-11.6-4.8C1.7,26,0,21.8,0,17.5C0,13.1,1.7,9,4.8,5.9C7.9,2.8,12,1,16.4,1
			S24.9,2.8,28,5.8c3.1,3.1,4.8,7.2,4.8,11.6S31.1,26,28,29.1C24.9,32.2,20.8,33.9,16.4,33.9z M16.4,3.6C8.8,3.6,2.6,9.8,2.6,17.5
			s6.2,13.9,13.9,13.9s13.9-6.2,13.9-13.9S24.1,3.6,16.4,3.6z"/>
	</g>
	<g id="svg_9_00000052104707018463704500000017135786708303486897_">
		<path class="st1" d="M19.3,22.9c-0.1-0.1-0.1-0.3-0.2-0.5C19,22.2,19,22,19,21.8c-0.2,0.2-0.4,0.3-0.6,0.5
			c-0.2,0.2-0.5,0.3-0.7,0.4c-0.3,0.1-0.5,0.2-0.9,0.3c-0.3,0.1-0.7,0.1-1.1,0.1c-0.6,0-1.2-0.1-1.7-0.3c-0.5-0.2-1-0.4-1.3-0.7
			c-0.4-0.3-0.6-0.7-0.9-1.1s-0.3-0.9-0.3-1.4c0-1.3,0.5-2.2,1.4-2.9c1-0.7,2.3-1.1,4.2-1.1h1.7v-0.7c0-0.6-0.2-1-0.6-1.4
			c-0.4-0.3-0.9-0.5-1.6-0.5c-0.6,0-1.1,0.1-1.4,0.4s-0.4,0.6-0.4,1.1h-3.1c0-0.5,0.1-1,0.3-1.5c0.2-0.4,0.5-0.9,1-1.2
			c0.4-0.3,1-0.6,1.6-0.8c0.6-0.2,1.3-0.3,2.1-0.3c0.7,0,1.4,0.1,2,0.3c0.6,0.2,1.2,0.4,1.6,0.8c0.4,0.3,0.8,0.8,1.1,1.3
			c0.3,0.5,0.4,1.1,0.4,1.8V20c0,0.6,0,1.2,0.1,1.6c0.1,0.4,0.2,0.8,0.3,1.1v0.2L19.3,22.9L19.3,22.9z M16.3,20.8
			c0.3,0,0.6,0,0.9-0.1s0.5-0.2,0.7-0.3c0.2-0.1,0.4-0.2,0.5-0.4c0.2-0.2,0.3-0.3,0.4-0.5v-2h-1.6c-0.5,0-0.9,0-1.2,0.1
			c-0.3,0.1-0.6,0.2-0.8,0.4c-0.2,0.2-0.4,0.4-0.5,0.6c-0.1,0.2-0.2,0.5-0.2,0.7c0,0.4,0.1,0.7,0.4,1C15.3,20.7,15.8,20.8,16.3,20.8
			L16.3,20.8z"/>
	</g>
</g>
</svg>
