<?xml version="1.0" encoding="utf-8"?>
<!-- Generator: Adobe Illustrator 26.2.1, SVG Export Plug-In . SVG Version: 6.00 Build 0)  -->
<svg version="1.1" id="Layer_1" xmlns="http://www.w3.org/2000/svg" xmlns:xlink="http://www.w3.org/1999/xlink" x="0px" y="0px"
	 viewBox="0 0 134.8 34.3" style="enable-background:new 0 0 134.8 34.3;" xml:space="preserve">
<style type="text/css">
	.st0{fill:#FFFFFF;}
	.st1{fill:#7C7C7C;}
	.st2{opacity:0.7;fill:#7C7C7C;}
</style>
<path class="st0" d="M14,14.9c0.1-0.5,0-0.9-0.2-1.2c-0.2-0.3-0.5-0.6-1-0.8c-0.2-0.1-0.4-0.2-0.7-0.2l0.3-1.5l-1-0.2l-0.3,1.5
	c-0.1,0-0.1,0-0.2,0c-0.2,0-0.5-0.1-0.9-0.1c0,0,0,0-0.1,0l0.3-1.5l-1-0.2l-0.3,1.6c-0.3,0-0.5-0.1-0.7-0.1c-0.2,0-0.5-0.1-0.8-0.1
	c-0.3,0-0.5-0.1-0.7-0.1c0,0.1,0,0.3-0.1,0.4c0,0.2,0,0.3,0,0.4c0.3,0.1,0.4,0.1,0.6,0.2c0.1,0.1,0.2,0.2,0.2,0.4
	c0,0.2,0,0.4-0.1,0.8l-0.9,4.5c-0.1,0.4-0.2,0.6-0.3,0.8c-0.1,0.2-0.2,0.3-0.4,0.3c-0.2,0.1-0.4,0.1-0.6,0.1C5,19.9,5,20,4.9,20.1
	c0,0.1-0.1,0.3-0.1,0.4c0.3,0,0.6,0.1,1,0.1c0.3,0,0.6,0.1,0.9,0.1l-0.4,1.8l1,0.2l0.4-1.8c0.1,0,0.3,0,0.4,0.1
	c0.3,0,0.5,0.1,0.7,0.1l-0.4,1.9l1,0.2l0.4-1.9c0.7,0.1,1.3,0,1.7-0.1c0.6-0.1,1.1-0.4,1.5-0.7c0.3-0.3,0.6-0.7,0.7-1.2
	c0.1-0.5,0.1-0.9-0.1-1.2c-0.2-0.3-0.4-0.6-0.8-0.9c-0.4-0.2-0.9-0.4-1.4-0.5c0.7,0,1.3-0.1,1.7-0.5C13.6,15.8,13.9,15.4,14,14.9z
	 M11.3,19c-0.1,0.5-0.3,0.9-0.7,1.1c-0.3,0.2-0.8,0.3-1.3,0.3c-0.3,0-0.5-0.1-0.6-0.2c-0.2-0.1-0.3-0.2-0.3-0.4c0-0.2,0-0.5,0-0.8
	l0.4-2l0.3,0c0.3,0,0.6,0.1,0.9,0.2c0.3,0.1,0.5,0.2,0.7,0.4c0.2,0.2,0.3,0.4,0.4,0.6C11.4,18.4,11.4,18.7,11.3,19z M11.7,15
	c-0.1,0.3-0.2,0.6-0.3,0.8c-0.2,0.2-0.4,0.4-0.7,0.5c-0.3,0.1-0.7,0.1-1.1,0l-0.5-0.1l0.6-2.9c0.1,0,0.2,0,0.2,0c0.1,0,0.3,0,0.4,0
	c0.3,0,0.6,0.1,0.8,0.3c0.2,0.1,0.4,0.3,0.6,0.6C11.8,14.3,11.8,14.6,11.7,15z"/>
<g>
	<g>
		<path class="st1" d="M35.6,20.6c0,2.4-1.9,3.8-5.4,3.8H23V10.5h6.9c3.5,0,5.2,1.5,5.2,3.6c0,1.3-0.6,2.4-1.8,3
			C34.7,17.7,35.6,18.9,35.6,20.6z M27.2,13.7v2.1h2c1,0,1.4-0.4,1.4-1c0-0.7-0.4-1-1.4-1H27.2z M31.2,20c0-0.7-0.5-1.1-1.4-1.1
			h-2.6v2.2h2.6C30.8,21.1,31.2,20.7,31.2,20z"/>
		<path class="st1" d="M37.2,10.5h4.3v13.9h-4.3V10.5z"/>
		<path class="st1" d="M46.4,14.1h-3.8v-3.6h11.8v3.6h-3.8v10.3h-4.3V14.1z"/>
		<path class="st1" d="M54.9,17.4c0-4.3,3-7.3,7.1-7.3c2.5,0,4.5,1,5.8,2.8l-2.7,2.6c-0.8-1-1.6-1.6-2.8-1.6c-1.8,0-3,1.4-3,3.5
			s1.2,3.5,3,3.5c1.2,0,2.1-0.6,2.8-1.6l2.7,2.6c-1.3,1.8-3.2,2.8-5.8,2.8C57.9,24.7,54.9,21.7,54.9,17.4z"/>
		<path class="st1" d="M68.3,17.4c0-4.2,3.1-7.3,7.2-7.3s7.2,3.1,7.2,7.3c0,4.2-3.1,7.3-7.2,7.3S68.3,21.6,68.3,17.4z M78.4,17.4
			c0-2.2-1.3-3.5-2.9-3.5s-2.9,1.3-2.9,3.5c0,2.2,1.3,3.5,2.9,3.5S78.4,19.6,78.4,17.4z"/>
		<path class="st1" d="M84.4,10.5h4.3v13.9h-4.3V10.5z"/>
		<path class="st1" d="M103.5,10.5v13.9h-3.6l-4.9-6.3v6.3h-4.2V10.5h3.6l4.9,6.3v-6.3H103.5z"/>
		<path class="st1" d="M105.6,10.5h4.3v13.9h-4.3V10.5z"/>
		<path class="st1" d="M111.2,23.3l1.4-3.4c1.2,0.8,2.8,1.3,4.2,1.3c1.2,0,1.7-0.3,1.7-0.8c0-1.8-7.1-0.3-7.1-5.5c0-2.6,2-4.7,6-4.7
			c1.7,0,3.5,0.4,4.8,1.2l-1.3,3.4c-1.3-0.7-2.5-1-3.6-1c-1.3,0-1.7,0.4-1.7,0.9c0,1.7,7.1,0.3,7.1,5.4c0,2.5-2,4.7-6,4.7
			C114.7,24.7,112.5,24.1,111.2,23.3z"/>
		<path class="st1" d="M126.7,14.1H123v-3.6h11.8v3.6H131v10.3h-4.3V14.1z"/>
	</g>
	<polygon class="st2" points="20.4,7 0,7 0,22.5 5.5,27.4 20.4,27.4 	"/>
	<path class="st0" d="M15.3,15.1c0.1-0.5,0.1-0.9-0.2-1.3c-0.2-0.3-0.6-0.6-1.2-0.9c-0.2-0.1-0.5-0.2-0.8-0.3l0.3-1.7l-1.1-0.2
		L12,12.5c-0.1,0-0.2,0-0.2,0c-0.3,0-0.6-0.1-1-0.1c0,0,0,0-0.1,0l0.3-1.7L10,10.4l-0.4,1.8c-0.3,0-0.6-0.1-0.8-0.1
		c-0.3,0-0.6-0.1-0.9-0.1c-0.3-0.1-0.6-0.1-0.8-0.1c0,0.1-0.1,0.3-0.1,0.5c0,0.2,0,0.3,0,0.4c0.3,0.1,0.5,0.1,0.6,0.2
		C7.9,13,7.9,13.2,8,13.4c0,0.2,0,0.5-0.1,0.8l-1,5c-0.1,0.4-0.2,0.7-0.3,0.9c-0.1,0.2-0.2,0.3-0.4,0.4c-0.2,0.1-0.4,0.1-0.7,0.1
		c-0.1,0.1-0.1,0.2-0.2,0.4c0,0.1-0.1,0.3-0.1,0.5c0.3,0,0.7,0.1,1.1,0.1c0.3,0,0.6,0.1,0.9,0.1l-0.4,2l1.1,0.2l0.4-2
		c0.2,0,0.3,0,0.5,0.1c0.3,0,0.5,0.1,0.8,0.1L9.1,24l1.1,0.2l0.4-2.1c0.7,0.1,1.4,0,1.9-0.1c0.7-0.1,1.2-0.4,1.6-0.8
		c0.4-0.4,0.6-0.8,0.7-1.3c0.1-0.5,0.1-1-0.1-1.4c-0.2-0.4-0.5-0.7-0.9-0.9c-0.4-0.2-1-0.4-1.6-0.6c0.8,0,1.4-0.2,1.9-0.5
		C14.8,16.2,15.1,15.7,15.3,15.1z M12.3,19.7c-0.1,0.5-0.4,0.9-0.7,1.2c-0.4,0.3-0.9,0.4-1.4,0.3c-0.3,0-0.5-0.1-0.7-0.2
		c-0.2-0.1-0.3-0.2-0.3-0.5c0-0.2,0-0.5,0.1-0.9l0.5-2.3l0.4,0.1c0.4,0.1,0.7,0.1,1,0.2c0.3,0.1,0.6,0.2,0.8,0.4
		c0.2,0.2,0.4,0.4,0.5,0.7C12.4,19,12.4,19.3,12.3,19.7z M12.8,15.2c-0.1,0.3-0.2,0.6-0.4,0.8c-0.2,0.2-0.5,0.4-0.8,0.5
		c-0.3,0.1-0.8,0.1-1.3,0l-0.5-0.1l0.7-3.2c0.1,0,0.2,0,0.2,0c0.1,0,0.3,0,0.5,0c0.3,0,0.6,0.1,0.9,0.3c0.3,0.2,0.5,0.4,0.6,0.6
		C12.8,14.5,12.9,14.8,12.8,15.2z"/>
</g>
</svg>
