<?xml version="1.0" encoding="utf-8"?>
<!-- Generator: Adobe Illustrator 26.2.1, SVG Export Plug-In . SVG Version: 6.00 Build 0)  -->
<svg version="1.1" id="Layer_1" xmlns="http://www.w3.org/2000/svg" xmlns:xlink="http://www.w3.org/1999/xlink" x="0px" y="0px"
	 viewBox="0 0 134.8 34.3" style="enable-background:new 0 0 134.8 34.3;" xml:space="preserve">
<style type="text/css">
	.st0{fill:#7C7C7C;}
</style>
<g>
	<g>
		<path class="st0" d="M21,22.7H3.2c-2.5,0-4-2.7-2.7-4.9L9.4,3.3c0.5-0.8,1.5-1,2.3-0.6c0.8,0.5,1,1.5,0.6,2.3L3.4,19.4
			c0,0,0,0,0,0h17.6c0.9,0,1.7,0.8,1.7,1.7C22.7,22,21.9,22.7,21,22.7z"/>
	</g>
	<g>
		<path class="st0" d="M8.2,20.1l8.3-15.8c1.2-2.2,4.3-2.3,5.6-0.2l8.7,14.6c0.5,0.8,0.2,1.8-0.6,2.3c-0.8,0.5-1.8,0.2-2.3-0.6
			L19.3,6.1c0,0,0,0,0,0l-8.2,15.6c-0.4,0.8-1.5,1.1-2.3,0.7C8.1,22,7.8,20.9,8.2,20.1z"/>
	</g>
	<g>
		<path class="st0" d="M16.5,10.2l9.3,15.2c1.3,2.1-0.2,4.9-2.7,4.9l-17,0c-0.9,0-1.7-0.7-1.7-1.7c0-0.9,0.7-1.7,1.7-1.7l16.8,0
			c0,0,0,0,0,0l-9.2-15.1c-0.5-0.8-0.2-1.8,0.6-2.3C15,9.1,16,9.4,16.5,10.2z"/>
	</g>
</g>
<g>
	<path class="st0" d="M48.9,17.6c-0.5-0.3-0.9-0.4-1.3-0.5c-0.4-0.1-0.8-0.1-1.2-0.1c-0.6,0-1.2,0.3-1.7,0.8
		c-0.5,0.5-0.8,1.2-0.8,2.2c0,0.9,0.3,1.6,0.8,2c0.5,0.5,1.1,0.7,1.7,0.7c0.4,0,0.8,0,1.2-0.1c0.4-0.1,0.8-0.3,1.3-0.5l1.3,3.3
		c-0.7,0.6-1.5,0.9-2.3,1.1c-0.8,0.1-1.5,0.2-2,0.2c-2.1,0-3.7-0.6-5-1.7c-1.3-1.1-1.9-2.8-1.9-4.9c0-2.1,0.6-3.8,1.9-5
		c1.3-1.2,3-1.8,5-1.8c0.5,0,1.2,0.1,2,0.2c0.8,0.1,1.6,0.5,2.3,1.1L48.9,17.6z"/>
	<path class="st0" d="M51.6,19.8c0-2.1,0.7-3.8,2.1-5c1.4-1.2,3.1-1.8,5.1-1.8c2.1,0,3.8,0.6,5.2,1.7c1.4,1.2,2,2.9,2,5.1
		c0,2.1-0.7,3.8-2.1,4.9s-3.2,1.7-5.2,1.7c-2,0-3.7-0.6-5.1-1.7C52.2,23.7,51.6,22,51.6,19.8z M56.5,19.8c0,0.9,0.2,1.5,0.6,2.1
		c0.4,0.5,0.9,0.8,1.7,0.8c0.8,0,1.3-0.2,1.7-0.7c0.4-0.5,0.6-1.1,0.6-2c0-0.9-0.2-1.6-0.6-2.1c-0.4-0.6-0.9-0.9-1.7-0.9
		c-0.8,0-1.3,0.3-1.7,0.8C56.7,18.2,56.5,18.9,56.5,19.8z"/>
	<path class="st0" d="M70.6,11.7c-0.7,0-1.3-0.3-1.8-0.8C68.3,10.5,68,9.8,68,9.1c0-0.7,0.3-1.3,0.8-1.9c0.5-0.5,1.1-0.8,1.8-0.8
		c0.7,0,1.3,0.3,1.9,0.8c0.5,0.5,0.8,1.1,0.8,1.9c0,0.7-0.3,1.3-0.8,1.8C71.9,11.5,71.3,11.7,70.6,11.7z M68.2,26.2V13.5H73v12.7
		H68.2z"/>
	<path class="st0" d="M79.4,14.6c0.5-0.3,1.3-0.7,2.2-1c0.9-0.4,1.9-0.6,2.9-0.6c1.8,0,3.1,0.5,3.9,1.5c0.8,1,1.2,2.3,1.2,3.8v7.9
		h-4.8v-7.8c0-0.5-0.1-0.9-0.4-1.1c-0.3-0.3-0.7-0.4-1.1-0.4c-0.3,0-0.7,0.1-1.1,0.2c-0.5,0.2-0.9,0.3-1.3,0.5v8.6H76V13.5h2.4
		L79.4,14.6z"/>
	<path class="st0" d="M92.3,26.2V13.5h2.4l1.2,1.3c0.5-0.4,1.1-0.7,1.9-0.9c0.7-0.3,1.4-0.4,2.2-0.4l1,3.8c-0.6,0-1.3,0.1-1.9,0.3
		c-0.7,0.2-1.3,0.5-1.8,0.9v7.7H92.3z"/>
	<path class="st0" d="M104.9,11.7c-0.7,0-1.3-0.3-1.8-0.8c-0.5-0.5-0.8-1.1-0.8-1.8c0-0.7,0.3-1.3,0.8-1.9c0.5-0.5,1.1-0.8,1.8-0.8
		c0.7,0,1.3,0.3,1.9,0.8c0.5,0.5,0.8,1.1,0.8,1.9c0,0.7-0.3,1.3-0.8,1.8C106.2,11.5,105.6,11.7,104.9,11.7z M102.5,26.2V13.5h4.8
		v12.7H102.5z"/>
	<path class="st0" d="M114.9,17.3c0,0.1,0.1,0.2,0.2,0.3c0.1,0.1,0.4,0.2,0.9,0.4c1.1,0.4,2.1,0.9,3,1.5c1,0.6,1.4,1.5,1.4,2.7
		c0,1.3-0.4,2.4-1.3,3.1c-0.9,0.8-2.2,1.1-4,1.1c-0.5,0-1.4-0.1-2.6-0.4c-1.2-0.3-2.1-0.7-2.9-1.3l1.3-3.3c0.5,0.3,1.1,0.5,1.9,0.8
		c0.7,0.3,1.3,0.4,1.8,0.4c0.3,0,0.5-0.1,0.6-0.2c0.1-0.1,0.2-0.2,0.2-0.3c0-0.1-0.1-0.2-0.2-0.3c-0.1-0.1-0.4-0.2-0.8-0.3
		c-1.1-0.4-2.1-0.9-3.1-1.5c-1-0.6-1.5-1.5-1.5-2.7c0-1.3,0.5-2.4,1.5-3.1c1-0.8,2.4-1.1,4.1-1.1c0.5,0,1.3,0.1,2.2,0.4
		c1,0.3,1.8,0.7,2.6,1.2l-1.3,3.3c-0.5-0.3-1-0.5-1.6-0.7c-0.6-0.2-1.1-0.3-1.5-0.3c-0.4,0-0.7,0.1-0.8,0.2
		C115,17.2,114.9,17.3,114.9,17.3z"/>
	<path class="st0" d="M121.9,19.8c0-2.1,0.7-3.8,2-5c1.3-1.2,2.9-1.8,4.9-1.8c2,0,3.6,0.7,4.6,2c1,1.3,1.5,2.9,1.5,4.6v1.7h-7.7
		c0.2,0.5,0.5,0.8,1,1.1c0.4,0.2,0.9,0.3,1.5,0.3c0.6,0,1.1-0.1,1.7-0.2c0.6-0.1,1.1-0.3,1.6-0.5l1.3,3.2c-0.7,0.5-1.6,0.9-2.7,1.1
		c-1.1,0.2-1.9,0.2-2.4,0.2c-2.1,0-3.8-0.5-5.2-1.6C122.5,23.8,121.9,22.1,121.9,19.8z M130.2,18.4c0-0.3-0.1-0.6-0.4-1
		c-0.2-0.4-0.7-0.6-1.3-0.6c-0.4,0-0.8,0.1-1.1,0.4c-0.3,0.3-0.5,0.7-0.6,1.1H130.2z"/>
</g>
<g>
	<path class="st0" d="M43.6,10.7c-0.1,0.1-0.3,0.2-0.5,0.3c-0.2,0.1-0.5,0.1-0.7,0.1c-0.5,0-1-0.1-1.4-0.4s-0.6-0.7-0.6-1.3V8.2
		h-0.7V7h0.7V5.8L42,5.6V7h1l0.1,1.2H42v1c0,0.2,0.1,0.3,0.2,0.4c0.1,0.1,0.2,0.2,0.4,0.2c0.1,0,0.2,0,0.3,0c0.1,0,0.2-0.1,0.3-0.1
		L43.6,10.7z"/>
	<path class="st0" d="M44.2,11V5l1.6-0.1v2c0.2-0.1,0.4-0.1,0.6-0.2c0.2-0.1,0.4-0.1,0.6-0.1c0.6,0,1,0.2,1.3,0.5
		c0.3,0.3,0.4,0.8,0.4,1.3V11h-1.6V8.5c0-0.2,0-0.3-0.1-0.4c-0.1-0.1-0.2-0.1-0.4-0.1c-0.1,0-0.2,0-0.4,0.1
		c-0.2,0.1-0.3,0.1-0.4,0.2V11H44.2z"/>
	<path class="st0" d="M49.3,8.9c0-0.7,0.2-1.3,0.7-1.7c0.4-0.4,1-0.6,1.6-0.6c0.7,0,1.2,0.2,1.5,0.7c0.3,0.4,0.5,0.9,0.5,1.5v0.5H51
		c0.1,0.2,0.2,0.3,0.3,0.3c0.1,0.1,0.3,0.1,0.5,0.1c0.2,0,0.4,0,0.6-0.1c0.2,0,0.4-0.1,0.5-0.2l0.4,1.1c-0.2,0.2-0.5,0.3-0.9,0.3
		c-0.4,0.1-0.6,0.1-0.8,0.1c-0.7,0-1.3-0.2-1.7-0.5C49.5,10.2,49.3,9.7,49.3,8.9z M52.1,8.4c0-0.1,0-0.2-0.1-0.3
		c-0.1-0.1-0.2-0.2-0.4-0.2c-0.1,0-0.3,0-0.4,0.1C51.1,8.2,51,8.3,51,8.4H52.1z"/>
</g>
</svg>
