<?xml version="1.0" encoding="utf-8"?>
<!-- Generator: Adobe Illustrator 26.2.1, SVG Export Plug-In . SVG Version: 6.00 Build 0)  -->
<svg version="1.1" id="Layer_1" xmlns="http://www.w3.org/2000/svg" xmlns:xlink="http://www.w3.org/1999/xlink" x="0px" y="0px"
	 viewBox="0 0 134.8 34.3" style="enable-background:new 0 0 134.8 34.3;" xml:space="preserve">
<style type="text/css">
	.st0{fill:#7C7C7C;}
	.st1{opacity:0.7;fill:#7C7C7C;}
</style>
<g>
	<g>
		<path class="st0" d="M18.8,24.3l-5.4,2.4v-0.3c-1,0.3-2.2,0.4-3.3,0.5c-5.1-0.1-9.2-2.7-9.3-5.9v-1.2c1.7,2.5,5.1,4.1,9.3,4.1
			c1.4,0.1,2.8-0.2,4.1-0.5l0.5-1.2c-1.4,0.4-3,0.8-4.5,0.8c-5.1,0-9.2-2.6-9.3-5.9v-0.9c1.7,2.3,5.1,3.9,9.3,3.8
			c1.9,0.1,3.7-0.3,5.2-0.9l0.3-1.2c-1.5,0.8-3.4,1.2-5.5,1.2c-5.1,0.1-9.2-2.6-9.3-5.9v-0.9c1.7,2.4,5.1,4,9.3,4.1
			c2.4-0.1,4.5-0.7,6.4-1.7l0.3-1.4c-1.7,1.2-4.1,2-6.6,2.2C5.1,14.8,1,12.1,0.9,8.8c0-3.2,4.2-5.9,9.3-5.9c3,0,5.9,1.1,7.6,2.8
			L17.9,6h1.2L19,5.7c-1.7-2.3-5-3.8-8.8-3.8C4.5,1.9,0,5,0,8.8v0.3v12.1c0.2,3.7,4.6,6.6,10.2,6.6C13.8,27.8,17.1,26.4,18.8,24.3z"
			/>
		<path class="st1" d="M16.6,32.6l1.9-8.1L13,26.8l3.3-14.1H9.9l1.7-6.9h20.6l-1.7,6.9h-6.7l-1.4,3.8l7.4-3.1L16.6,32.6z M19.9,22.8
			L19,27.6l7.9-12l-6.4,2.8l2.8-6.7h6.4L31,6.8H12.3l-1.2,5h6.4l-3.1,13.4L19.9,22.8z"/>
	</g>
	<path class="st0" d="M40.9,18.6L40.9,18.6c0,0.8-0.2,1.5-0.7,2.1c-0.5,0.5-1.2,0.7-2.2,0.7s-1.8-0.3-2.3-0.9
		c-0.6-0.6-0.8-1.4-0.8-2.4v-1.5c0-0.9,0.3-1.8,0.8-2.4c0.6-0.6,1.3-0.9,2.3-0.9c0.9,0,1.8,0.2,2.3,0.7c0.5,0.5,0.8,1.1,0.8,2l0,0
		h-1.5c0-0.5-0.1-0.9-0.4-1.1c-0.3-0.2-0.6-0.4-1.1-0.4c-0.5,0-0.8,0.2-1.1,0.6s-0.5,0.8-0.5,1.4V18c0,0.6,0.1,1.1,0.4,1.4
		c0.3,0.3,0.7,0.6,1.1,0.6c0.5,0,0.8-0.1,1-0.4c0.2-0.2,0.3-0.6,0.3-1.1h1.7V18.6z M49.6,18c0,0.9-0.3,1.8-0.9,2.4
		c-0.6,0.6-1.4,0.9-2.4,0.9s-1.8-0.3-2.4-0.9C43.3,19.8,43,18.9,43,18v-1.4c0-0.9,0.3-1.8,0.9-2.4c0.6-0.6,1.4-0.9,2.4-0.9
		c1,0,1.8,0.3,2.4,0.9c0.6,0.6,0.9,1.4,0.9,2.4V18z M48,16.6c0-0.6-0.1-1.1-0.4-1.5s-0.7-0.6-1.2-0.6c-0.5,0-0.9,0.2-1.2,0.6
		s-0.5,0.9-0.5,1.5V18c0,0.6,0.1,1.1,0.4,1.5c0.3,0.4,0.7,0.6,1.2,0.6c0.5,0,0.9-0.2,1.2-0.6s0.4-0.9,0.4-1.5v-1.4H48z M53.7,21.2
		h-1.5v-8h1.5V21.2z M62.9,21.2h-1.5l-3.2-5.4l0,0v5.4h-1.5v-8h1.4l3.2,5.4l0,0v-5.4h1.5v8H62.9z M70.9,14.5h-2.3v6.7h-1.5v-6.7
		h-2.3v-1.2h6.1C70.9,13.3,70.9,14.5,70.9,14.5z M77.5,17.8h-2.9v2.3h3.5v1.2H73v-8h5.1v1.2h-3.5v2h2.9V17.8z M81.9,20.1h3.5v1.2
		h-5.2v-8h1.5v6.7H81.9z M92.1,17.8h-2.9v2.3h3.5v1.2h-5.1v-8h5.1v1.2h-3.5v2h2.9V17.8z M101.1,20.2c-0.2,0.3-0.6,0.6-1.1,0.8
		c-0.5,0.2-1.1,0.3-1.9,0.3c-0.9,0-1.8-0.3-2.4-0.9c-0.6-0.6-0.9-1.3-0.9-2.4v-1.7c0-0.9,0.3-1.8,0.9-2.4c0.6-0.6,1.3-0.9,2.3-0.9
		c0.9,0,1.8,0.2,2.3,0.7c0.5,0.4,0.7,1,0.7,1.9l0,0h-1.4c0-0.4-0.1-0.7-0.4-1c-0.2-0.2-0.6-0.3-1-0.3c-0.5,0-0.8,0.2-1.1,0.5
		c-0.3,0.4-0.4,0.8-0.4,1.4v1.7c0,0.6,0.1,1.1,0.4,1.4c0.3,0.4,0.7,0.5,1.2,0.5c0.4,0,0.7,0,0.9-0.1c0.2-0.1,0.4-0.2,0.5-0.3v-1.5
		h-1.5v-1.1h3.1v3.4H101.1z M105.2,18.1v3.2h-1.5v-8h2.8c0.9,0,1.7,0.2,2.2,0.6c0.5,0.4,0.7,1,0.7,1.8c0,0.4-0.1,0.7-0.3,1
		c-0.2,0.3-0.5,0.5-0.9,0.7c0.5,0.1,0.8,0.4,1,0.7c0.2,0.3,0.3,0.7,0.3,1.2v0.6c0,0.2,0,0.4,0.1,0.7c0.1,0.2,0.2,0.4,0.3,0.5v0.1
		h-1.7c-0.1-0.1-0.2-0.3-0.3-0.6c0-0.3-0.1-0.5-0.1-0.8v-0.5c0-0.4-0.1-0.7-0.3-0.9c-0.2-0.2-0.5-0.3-0.9-0.3h-1.3V18.1z
		 M105.2,16.9h1.1c0.4,0,0.8-0.1,1-0.3c0.2-0.2,0.3-0.5,0.3-0.8c0-0.4-0.1-0.6-0.3-0.8c-0.2-0.2-0.5-0.3-0.9-0.3h-1.1v2.3H105.2z
		 M116,19.6h-2.6l-0.5,1.8h-1.7l2.7-8h1.7l2.7,8h-1.7L116,19.6z M113.8,18.3h1.8l-0.8-2.8l0,0L113.8,18.3z M121.7,18.4v2.9h-1.5v-8
		h3c0.9,0,1.7,0.2,2.2,0.7c0.5,0.4,0.8,1,0.8,1.9c0,0.7-0.3,1.3-0.8,1.9c-0.5,0.4-1.2,0.7-2.2,0.7h-1.4V18.4z M121.7,17.2h1.4
		c0.4,0,0.8-0.1,1-0.4c0.2-0.2,0.3-0.5,0.3-0.9c0-0.4-0.1-0.7-0.3-0.9c-0.2-0.2-0.5-0.4-1-0.4h-1.4V17.2z M134.8,21.2h-1.5v-3.3H130
		v3.3h-1.5v-8h1.5v3.4h3.2v-3.4h1.5V21.2z"/>
</g>
</svg>
