<?xml version="1.0" encoding="utf-8"?>
<!-- Generator: Adobe Illustrator 26.2.1, SVG Export Plug-In . SVG Version: 6.00 Build 0)  -->
<svg version="1.1" id="Layer_1" xmlns="http://www.w3.org/2000/svg" xmlns:xlink="http://www.w3.org/1999/xlink" x="0px" y="0px"
	 viewBox="0 0 512 512" style="enable-background:new 0 0 512 512;" xml:space="preserve">
<style type="text/css">
	.st0{opacity:0.6;fill:#FFFFFF;enable-background:new    ;}
</style>
<path class="st0" d="M434.3,92.3c-0.1-0.3-0.4-0.5-0.7-0.6c-33.1-15.2-68-26-103.9-32.2c-0.7-0.1-1.3,0.2-1.7,0.8
	c-4.8,8.6-9.1,17.5-12.9,26.6c-38.7-5.9-78-5.9-116.7,0c-3.9-9.1-8.3-18-13.1-26.6c-0.3-0.6-1-0.9-1.7-0.8
	c-35.9,6.2-70.8,17-103.9,32.2c-0.3,0.1-0.5,0.3-0.7,0.6C12.9,191.1-5.2,287.5,3.7,382.7c0.1,0.5,0.3,0.9,0.7,1.2
	c38.5,28.5,81.6,50.3,127.5,64.4c0.7,0.2,1.4,0,1.8-0.6c9.8-13.4,18.6-27.6,26.1-42.4c0.4-0.8,0.1-1.8-0.7-2.2
	c-0.1,0-0.1-0.1-0.2-0.1c-13.8-5.3-27.1-11.6-39.8-19c-0.8-0.5-1-1.5-0.6-2.2c0.1-0.2,0.3-0.3,0.4-0.5c2.7-2,5.4-4.1,7.9-6.2
	c0.5-0.4,1.1-0.5,1.6-0.2c83.5,38.1,174,38.1,256.5,0c0.5-0.3,1.2-0.2,1.7,0.2c2.6,2.1,5.2,4.2,7.9,6.2c0.7,0.5,0.9,1.6,0.3,2.3
	c-0.1,0.2-0.3,0.3-0.5,0.4c-12.7,7.4-26,13.8-39.8,19c-0.8,0.3-1.3,1.3-0.9,2.1c0,0.1,0,0.1,0.1,0.2c7.6,14.7,16.3,28.9,26.1,42.4
	c0.4,0.6,1.1,0.8,1.8,0.6c45.9-14,89.1-35.8,127.7-64.4c0.4-0.3,0.6-0.7,0.7-1.2C520.4,272.7,492,177.1,434.3,92.3z M172.1,324.8
	c-25.2,0-45.9-23.1-45.9-51.4c0-28.3,20.3-51.4,45.9-51.4c25.8,0,46.3,23.3,45.9,51.4C218,301.7,197.7,324.8,172.1,324.8z
	 M341.7,324.8c-25.2,0-45.9-23.1-45.9-51.4c0-28.3,20.3-51.4,45.9-51.4c25.8,0,46.3,23.3,45.9,51.4
	C387.6,301.7,367.5,324.8,341.7,324.8z"/>
</svg>
