<?xml version="1.0" encoding="utf-8"?>
<svg version="1.1" xmlns="http://www.w3.org/2000/svg" xmlns:xlink="http://www.w3.org/1999/xlink" x="0px" y="0px" viewBox="0 0 140.9 19.9" style="enable-background:new 0 0 140.9 19.9;" xml:space="preserve">
<style type="text/css">
	.st0{fill-rule:evenodd;clip-rule:evenodd;fill:#7C7C7C;}
	.st1{opacity:0.5;fill:#7C7C7C;enable-background:new    ;}
	.st2{opacity:0.25;fill-rule:evenodd;clip-rule:evenodd;fill:#7C7C7C;enable-background:new    ;}
	.st3{fill:#7C7C7C;}
</style>
<g id="Layer_2_00000164501622079228327510000004760162741196772491_">
	<g>
		<g id="Layer_1-2_00000152985766380682555090000013469531809990853554_">
			<g id="Page-1_00000134972757499822242610000007853313358368713633_">
				<g id="Artboard_00000016769117477649963670000004259926752098990477_">
					<g id="BCE-Copy_00000006675083541238549780000010769299131582716551_">
						<g id="Group-5-Copy_00000160164494340088349570000005979527314390632094_">
							<g id="Group-Copy_00000175323563045383767990000009804725749994487168_">
								<path id="Path_00000071560312947983183340000016084526655816212632_" class="st0" d="M13.4,0h6.2c0.3,0,0.5,0.2,0.5,0.5
									c0,0,0,0,0,0v6.2h-6.7V0z"/>

									<rect id="Rectangle_00000033364123178783897400000003980833776960814228_" x="13.4" y="6.7" class="st1" width="6.7" height="6.7"/>
								<path id="Path-2_00000176750291782448513340000005950139096130046606_" class="st2" d="M13.4,13.4h6.7v6
									c0,0.3-0.3,0.5-0.5,0.5c0,0,0,0,0,0h-6.2V13.4z"/>
								<path id="Path-3_00000022561687694974627970000005673789299017966727_" class="st2" d="M0.5,0h6.2v6.7H0V0.5
									C0,0.3,0.2,0,0.5,0C0.5,0,0.5,0,0.5,0z"/>

									<rect id="Rectangle-2_00000132087605618594425470000005994321275360163750_" x="6.7" y="6.7" class="st3" width="6.7" height="6.7"/>
								<path id="Path-4_00000092433077119551738140000006636841626009222324_" class="st0" d="M0,13.4h6.7v6.5H0.5
									c-0.3,0-0.5-0.2-0.5-0.5c0,0,0,0,0,0V13.4z"/>

									<rect id="Rectangle-3_00000145773024094177085610000017487189003031367594_" x="6.7" y="13.4" class="st1" width="6.7" height="6.5"/>

									<rect id="Rectangle-4_00000128485153640456283870000008578680389432825759_" x="6.7" y="0" class="st1" width="6.7" height="6.7"/>

									<rect id="Rectangle-5_00000067214100471003208600000007256453710561364141_" x="0" y="6.7" class="st1" width="6.7" height="6.7"/>
							</g>
							<g id="Group-4-Copy_00000127042412797474278360000017763867854522731965_">
								<path id="Shape_00000090280609013245089330000012291102758176895677_" class="st3" d="M32.3,17.9h-7.2
									c-0.1,0-0.2-0.1-0.2-0.2c0,0,0,0,0,0l0.1-8l-0.1-8c0-0.1,0.1-0.2,0.2-0.2c0,0,0,0,0,0h7.1c3.4,0,5.9,1.2,5.9,4.1
									c0,2-1.1,3.1-2.9,3.6c2.2,0.5,3.3,2,3.3,3.8C38.5,16.5,35.5,17.9,32.3,17.9z M28.5,8.1h3.8c1.4,0,2.2-0.7,2.2-2
									c0-1.4-1-2.1-2.2-2.1h-3.8L28.5,8.1z M28.5,15.4h3.7c1.5,0,2.7-0.5,2.7-2.5c0-1.7-1.2-2.4-2.7-2.4h-3.8L28.5,15.4z"/>
								<path id="Shape-2_00000060007032089435683910000008351971687107741373_" class="st3" d="M39.4,4.7c-0.1,0-0.2-0.1-0.2-0.2
									c0,0,0,0,0,0V1.7c0-0.1,0.1-0.2,0.2-0.2c0,0,0,0,0,0h3.3c0.1,0,0.2,0.1,0.2,0.2c0,0,0,0,0,0v2.8c0,0.1-0.1,0.2-0.2,0.2
									c0,0,0,0,0,0L39.4,4.7z M39.4,17.9c-0.1,0-0.2-0.1-0.2-0.2c0,0,0,0,0,0l0-5.8l0-5.9c0-0.1,0.1-0.2,0.2-0.2c0,0,0,0,0,0h3.3
									c0.1,0,0.2,0.1,0.2,0.2c0,0,0,0,0,0l0,5.9l0,5.8c0,0.1-0.1,0.2-0.2,0.2c0,0,0,0,0,0H39.4z"/>
								<path id="Path-5_00000097499517704573913180000002119102562365531021_" class="st0" d="M51.5,17.5c0,0.1-0.1,0.2-0.2,0.3
									c-0.7,0.3-1.5,0.4-2.2,0.4c-2,0-4-1-4-3.8l0-6.1h-1.4c-0.1,0-0.2-0.1-0.2-0.2V6c0-0.1,0.1-0.2,0.2-0.2c0,0,0,0,0,0h1.4
									l0-2.8c0-0.1,0.1-0.2,0.2-0.2c0,0,0,0,0,0h3.2c0.1,0,0.2,0.1,0.2,0.2c0,0,0,0,0,0l0,2.8h2.7c0.1,0,0.2,0.1,0.2,0.2
									c0,0,0,0,0,0v2.1c0,0.1-0.1,0.2-0.2,0.2c0,0,0,0,0,0h-2.7l0,6c0,1,0.5,1.4,1.3,1.4c0.5,0,0.9-0.1,1.4-0.2c0,0,0.1,0,0.1,0
									c0,0,0.1,0.1,0.1,0.1L51.5,17.5L51.5,17.5z"/>
								<path id="Path-6_00000011719938294105286290000004204920381002464929_" class="st0" d="M57.8,18.4c-3.9,0-6.2-2.5-6.2-6.3
									s2.3-6.4,6.3-6.4c3.1,0,5.2,1.8,5.4,4.4c0,0.1,0,0.1-0.1,0.2c0,0,0,0,0,0h-2.9c-0.1,0-0.2-0.1-0.2-0.2c0,0,0,0,0,0
									c-0.3-1.4-1.1-2-2.2-2c-1.8,0-2.7,1.3-2.7,4c0,2.8,0.9,4,2.7,4c1.2,0,2.1-0.8,2.2-2.4c0-0.1,0.1-0.2,0.2-0.2h3
									c0,0,0.1,0,0.1,0c0,0,0,0.1,0,0.1C63.2,16.4,60.9,18.4,57.8,18.4z"/>
								<path id="Shape-3_00000006671855399517191900000005113129823963226262_" class="st3" d="M70,18.4c-4,0-6.3-2.5-6.3-6.3
									S66,5.6,70,5.6s6.3,2.5,6.3,6.3S73.9,18.4,70,18.4z M70,16c1.8,0,2.6-1.2,2.6-4s-0.9-4-2.6-4s-2.6,1.3-2.6,4.1
									S68.2,16,70,16z"/>
								<path id="Shape-4_00000031193286109536823720000016843175695992033673_" class="st3" d="M77.1,4.9c-0.1,0-0.2-0.1-0.2-0.2
									c0,0,0,0,0,0V1.9c0-0.1,0.1-0.2,0.2-0.2c0,0,0,0,0,0h3.3c0.1,0,0.2,0.1,0.2,0.2c0,0,0,0,0,0v2.8c0,0.1-0.1,0.2-0.2,0.2
									c0,0,0,0,0,0L77.1,4.9z M77.1,18.1c-0.1,0-0.2-0.1-0.2-0.2c0,0,0,0,0,0l0-5.8l0-5.9C76.9,6.1,77,6,77.1,6c0,0,0,0,0,0h3.3
									c0.1,0,0.2,0.1,0.2,0.2c0,0,0,0,0,0l0,5.9l0,5.8c0,0.1-0.1,0.2-0.2,0.2c0,0,0,0,0,0H77.1z"/>
								<path id="Path-7_00000009585469558858574370000010717933786442516097_" class="st0" d="M81.6,18.1c-0.1,0-0.2-0.1-0.2-0.2
									c0,0,0,0,0,0l0-5.7V6.1c0-0.1,0.1-0.2,0.2-0.2c0,0,0,0,0,0h3.1c0.1,0,0.2,0.1,0.2,0.2c0,0,0,0,0,0l-0.1,1.3
									c1-1.2,2.4-1.9,4-1.8c2.6,0,4.3,1.8,4.3,4.7v2.5l0,5c0,0.1-0.1,0.2-0.2,0.2c0,0,0,0,0,0h-3.2c-0.1,0-0.2-0.1-0.2-0.2
									c0,0,0,0,0,0l0-5v-2.5c0-1.3-0.8-2.2-1.8-2.2C86.4,8.2,85,9.3,85,12v0.9l0,5c0,0.1-0.1,0.2-0.2,0.2c0,0,0,0,0,0L81.6,18.1
									L81.6,18.1z"/>
								<path id="Path-8_00000091705560676586757340000007835687470665324941_" class="st0" d="M93.7,18.1c-0.1,0-0.2-0.1-0.2-0.2
									c0,0,0,0,0,0v-3c0-0.1,0.1-0.2,0.2-0.2c0,0,0,0,0,0H97c0.1,0,0.2,0.1,0.2,0.2c0,0,0,0,0,0v3.1c0,0.1-0.1,0.2-0.2,0.2
									c0,0,0,0,0,0L93.7,18.1z"/>
								<path id="Path-9_00000058554724550222941060000000101523879163769216_" class="st0" d="M103.7,18.4c-3.9,0-6.2-2.5-6.2-6.3
									s2.3-6.4,6.3-6.4c3.1,0,5.2,1.8,5.4,4.4c0,0.1,0,0.1-0.1,0.2c0,0,0,0,0,0h-2.9c-0.1,0-0.2-0.1-0.2-0.2c0,0,0,0,0,0
									c-0.3-1.4-1.1-2-2.2-2c-1.8,0-2.7,1.3-2.7,4c0,2.8,0.9,4,2.7,4c1.2,0,2.1-0.8,2.2-2.4c0-0.1,0.1-0.2,0.2-0.2h3
									c0,0,0.1,0,0.1,0c0,0,0,0.1,0,0.1C109.1,16.4,106.9,18.4,103.7,18.4z"/>
								<path id="Shape-5_00000086649714796892545740000016009122118816339128_" class="st3" d="M116.1,18.4c-4,0-6.3-2.5-6.3-6.3
									s2.3-6.4,6.3-6.4c4,0,6.3,2.5,6.3,6.3S120.1,18.4,116.1,18.4z M116.1,16c1.8,0,2.6-1.2,2.6-4s-0.9-4-2.6-4s-2.6,1.3-2.6,4.1
									S114.3,16,116.1,16z"/>
								<path id="Path-10_00000049912708117613636230000004727821545527532683_" class="st0" d="M126.4,13.7l0,4.2
									c0,0.1-0.1,0.2-0.2,0.2c0,0,0,0,0,0H123c-0.1,0-0.2-0.1-0.2-0.2c0,0,0,0,0,0l0-4.2V6.1c0-0.1,0.1-0.2,0.2-0.2c0,0,0,0,0,0
									h3.1c0.1,0,0.2,0.1,0.2,0.2c0,0,0,0,0,0l-0.1,1.3c0.8-1.2,2.1-1.9,3.5-1.8c1.7,0,3,0.7,3.5,2.3c1.1-1.8,2.3-2.3,3.7-2.3
									c2.5,0,3.9,1.5,3.9,4.7v3.4l0,4.2c0,0.1-0.1,0.2-0.2,0.2c0,0,0,0,0,0h-3.2c-0.1,0-0.2-0.1-0.2-0.2c0,0,0,0,0,0l0-4.2v-3.3
									c0-1.5-0.6-2.2-1.6-2.2s-2.2,1.3-2.2,3.8v1.7l0,4.2c0,0.1-0.1,0.2-0.2,0.2c0,0,0,0,0,0h-3.2c-0.1,0-0.2-0.1-0.2-0.2
									c0,0,0,0,0,0l0-4.2v-3.3c0-1.5-0.6-2.2-1.6-2.2c-1,0-2.2,1.3-2.2,3.8L126.4,13.7z"/>
							</g>
						</g>
					</g>
				</g>
			</g>
		</g>
	</g>
</g>
</svg>
