<?xml version="1.0" encoding="utf-8"?>
<!-- Generator: Adobe Illustrator 26.3.1, SVG Export Plug-In . SVG Version: 6.00 Build 0)  -->
<svg version="1.1" id="Layer_1" xmlns="http://www.w3.org/2000/svg" xmlns:xlink="http://www.w3.org/1999/xlink" x="0px" y="0px"
	 viewBox="0 0 134.8 34.3" style="enable-background:new 0 0 134.8 34.3;" xml:space="preserve">
<style type="text/css">
	.st0{opacity:0.4;fill:#FFFFFF;}
	.st1{opacity:0.6;fill:#FFFFFF;}
	.st2{opacity:0.5;fill:#FFFFFF;}
	.st3{opacity:0.7;enable-background:new    ;}
	.st4{fill:#FFFFFF;stroke:#FFFFFF;stroke-width:0.25;stroke-miterlimit:10;}
</style>
<path class="st0" d="M21.4,11.7c0-3.8-3.1-6.9-6.9-6.9H7.3c-3.8,0-6.9,3.1-6.9,6.9v10.8c0,3.7,2.9,6.7,6.6,6.9V15h14.5V11.7z"/>
<path class="st1" d="M21.7,25.1c-2.5,0-4.5,1.9-4.7,4.3h9.3C26.2,27.1,24.2,25.1,21.7,25.1z"/>
<path class="st2" d="M21.4,15.7c-7.5,0.2-13.6,6.3-13.8,13.8h7.2c0.2-3.5,3-6.4,6.6-6.6C21.4,22.9,21.4,15.7,21.4,15.7z"/>
<g class="st3">
	<path class="st4" d="M35.5,15.9c0,2-1.5,3.3-3.9,3.3h-2.8v3.2H28v-9.8h3.5C34,12.6,35.5,13.8,35.5,15.9L35.5,15.9z M34.7,15.9
		c0-1.7-1.1-2.6-3.2-2.6h-2.8v5.3h2.8C33.6,18.5,34.7,17.6,34.7,15.9z"/>
	<path class="st4" d="M43.7,18.9h-6.3c0.1,1.7,1.3,2.9,3.1,2.9c0.9,0,1.8-0.3,2.3-1l0.4,0.5c-0.6,0.8-1.6,1.2-2.7,1.2
		c-2.2,0-3.7-1.5-3.7-3.7s1.5-3.7,3.5-3.7c2,0,3.5,1.5,3.5,3.7C43.8,18.8,43.7,18.8,43.7,18.9L43.7,18.9z M37.5,18.3h5.6
		c-0.1-1.6-1.2-2.7-2.8-2.7C38.7,15.6,37.6,16.8,37.5,18.3z"/>
	<path class="st4" d="M49.5,21.9c-0.4,0.3-0.9,0.5-1.5,0.5c-1.3,0-2-0.8-2-2v-4.8h-1.3v-0.6h1.3v-1.6h0.7v1.6h2.3v0.6h-2.3v4.7
		c0,0.9,0.5,1.4,1.4,1.4c0.4,0,0.8-0.1,1.1-0.4L49.5,21.9L49.5,21.9z"/>
	<path class="st4" d="M58.5,22.4l-2.3-3.3c-0.3,0-0.6,0.1-0.9,0.1h-2.8v3.2h-0.7v-9.8h3.5c2.5,0,3.9,1.2,3.9,3.3
		c0,1.5-0.8,2.6-2.3,3.1l2.4,3.4H58.5L58.5,22.4z M55.2,18.5c2.1,0,3.2-1,3.2-2.6c0-1.7-1.1-2.6-3.2-2.6h-2.8v5.3H55.2z"/>
	<path class="st4" d="M60.7,18.7c0-2.2,1.5-3.7,3.6-3.7c2.1,0,3.6,1.5,3.6,3.7s-1.5,3.7-3.6,3.7C62.2,22.4,60.7,20.9,60.7,18.7z
		 M67.3,18.7c0-1.8-1.3-3.1-2.9-3.1c-1.7,0-2.9,1.2-2.9,3.1c0,1.8,1.3,3.1,2.9,3.1C66,21.8,67.3,20.5,67.3,18.7z"/>
	<path class="st4" d="M69.3,18.7c0-2.2,1.5-3.7,3.7-3.7c1.2,0,2.2,0.4,2.8,1.3l-0.5,0.4c-0.5-0.7-1.3-1.1-2.2-1.1
		c-1.7,0-3,1.2-3,3.1c0,1.8,1.3,3.1,3,3.1c0.9,0,1.7-0.3,2.2-1.1l0.5,0.4c-0.6,0.9-1.6,1.3-2.8,1.3C70.9,22.4,69.3,20.9,69.3,18.7
		L69.3,18.7z"/>
	<path class="st4" d="M80.3,18.5l-1.9,1.7v2.2h-0.7V12h0.7v7.3l4.7-4.2H84L80.8,18l3.4,4.3h-0.9L80.3,18.5z"/>
	<path class="st4" d="M88.8,17.5c0-2.8,2.2-4.9,5.1-4.9c1.4,0,2.6,0.4,3.5,1.4l-0.4,0.5c-0.8-0.8-1.9-1.2-3-1.2
		c-2.5,0-4.4,1.8-4.4,4.3s1.9,4.3,4.4,4.3c1.1,0,2.2-0.3,3-1.2l0.4,0.5c-0.8,0.9-2.1,1.4-3.5,1.4C91,22.4,88.8,20.3,88.8,17.5z"/>
	<path class="st4" d="M104.6,17.7v4.6h-0.7v-1.3c-0.5,0.8-1.4,1.4-2.6,1.4c-1.6,0-2.6-0.8-2.6-2.1c0-1.1,0.7-2,2.7-2h2.5v-0.6
		c0-1.4-0.7-2.1-2.2-2.1c-1,0-1.9,0.4-2.5,0.9l-0.3-0.5c0.7-0.6,1.8-1,2.9-1C103.6,15,104.6,16,104.6,17.7L104.6,17.7z M103.9,20.2
		v-1.4h-2.5c-1.5,0-2,0.6-2,1.5c0,0.9,0.7,1.5,2,1.5C102.6,21.8,103.5,21.3,103.9,20.2z"/>
	<path class="st4" d="M114.7,18.7c0,2.2-1.5,3.7-3.6,3.7c-1.3,0-2.4-0.6-3-1.7v4.4h-0.7v-10h0.7v1.7c0.6-1.1,1.7-1.8,3-1.8
		C113.2,15,114.7,16.6,114.7,18.7L114.7,18.7z M114,18.7c0-1.8-1.3-3.1-2.9-3.1c-1.7,0-2.9,1.2-2.9,3.1c0,1.8,1.3,3.1,2.9,3.1
		C112.8,21.8,114,20.5,114,18.7z"/>
	<path class="st4" d="M116.7,12.8c0-0.3,0.3-0.6,0.6-0.6c0.3,0,0.6,0.3,0.6,0.6c0,0.3-0.3,0.6-0.6,0.6
		C116.9,13.3,116.7,13.1,116.7,12.8z M116.9,15.1h0.7v7.3h-0.7V15.1z"/>
	<path class="st4" d="M124.1,21.9c-0.4,0.3-0.9,0.5-1.5,0.5c-1.3,0-2-0.8-2-2v-4.8h-1.3v-0.6h1.3v-1.6h0.7v1.6h2.3v0.6h-2.3v4.7
		c0,0.9,0.5,1.4,1.4,1.4c0.4,0,0.8-0.1,1.1-0.4L124.1,21.9L124.1,21.9z"/>
	<path class="st4" d="M131.3,17.7v4.6h-0.7v-1.3c-0.5,0.8-1.4,1.4-2.6,1.4c-1.6,0-2.6-0.8-2.6-2.1c0-1.1,0.7-2,2.7-2h2.5v-0.6
		c0-1.4-0.7-2.1-2.2-2.1c-1,0-1.9,0.4-2.5,0.9l-0.3-0.5c0.7-0.6,1.8-1,2.9-1C130.3,15,131.3,16,131.3,17.7L131.3,17.7z M130.6,20.2
		v-1.4h-2.5c-1.5,0-2,0.6-2,1.5c0,0.9,0.7,1.5,2,1.5C129.4,21.8,130.2,21.3,130.6,20.2z"/>
	<path class="st4" d="M134.2,12h0.7v10.3h-0.7V12z"/>
</g>
</svg>
