<?xml version="1.0" encoding="utf-8"?>
<!-- Generator: Adobe Illustrator 26.1.0, SVG Export Plug-In . SVG Version: 6.00 Build 0)  -->
<svg version="1.1" id="Layer_1" xmlns="http://www.w3.org/2000/svg" xmlns:xlink="http://www.w3.org/1999/xlink" x="0px" y="0px"
	 viewBox="0 0 512 512" style="enable-background:new 0 0 512 512;" xml:space="preserve">
<style type="text/css">
	.st0{opacity:0.6;fill:#FFFFFF;}
</style>
<path class="st0" d="M199.7,307.1c-14.2,0-25.7-11.5-25.7-25.4c0-14.2,11.5-25.7,25.7-25.7c14,0,25.4,11.5,25.4,25.7
	C225.1,295.7,213.7,307.1,199.7,307.1z M512,256c0,141.4-114.6,256-256,256S0,397.4,0,256S114.6,0,256,0S512,114.6,512,256z
	 M375.4,213.5c-9.7,0-18.3,4-24.6,10.3c-23.1-16-54.3-26.3-88.9-27.5l18-80.8l57.2,12.9c0,14,11.5,25.4,25.4,25.4
	c14.2,0,25.7-11.7,25.7-25.7c0-14-11.5-25.7-25.7-25.7c-10,0-18.6,6-22.8,14.2l-63.2-14c-3.1-0.8-6.3,1.4-7.1,4.5l-19.7,89.2
	c-34.3,1.4-65.1,11.7-88.3,27.7c-6.3-6.6-15.2-10.5-24.9-10.5c-36,0-47.8,48.4-14.9,64.8c-1.1,5.2-1.8,10.5-1.8,16
	c0,54.3,61.1,98.3,136.3,98.3c75.5,0,136.6-44,136.6-98.3c0-5.5-0.6-11.1-2-16.3C423.1,261.5,411.3,213.5,375.4,213.5L375.4,213.5z
	 M304.3,333.4c-18.8,18.8-78.6,18.5-96.6,0c-2.3-2.3-6.3-2.3-8.6,0c-2.6,2.6-2.6,6.6,0,8.9c23.5,23.5,90.1,23.5,113.8,0
	c2.6-2.3,2.6-6.3,0-8.9C310.6,331.1,306.6,331.1,304.3,333.4z M312.3,256c-14,0-25.4,11.5-25.4,25.7c0,14,11.5,25.4,25.4,25.4
	c14.2,0,25.7-11.5,25.7-25.4C338,267.5,326.6,256,312.3,256z"/>
</svg>
