<?xml version="1.0" encoding="utf-8"?>
<!-- Generator: Adobe Illustrator 26.2.1, SVG Export Plug-In . SVG Version: 6.00 Build 0)  -->
<svg version="1.1" id="Layer_1" xmlns="http://www.w3.org/2000/svg" xmlns:xlink="http://www.w3.org/1999/xlink" x="0px" y="0px"
	 viewBox="0 0 134.8 34.3" style="enable-background:new 0 0 134.8 34.3;" xml:space="preserve">
<style type="text/css">
	.st0{opacity:0.5;}
	.st1{fill:#FFFFFF;}
	.st2{opacity:0.8;}
</style>
<g class="st0">
	<path class="st1" d="M19.4,1.2l3,0c2.1-0.1,4.2-0.2,6-0.2c0-0.3,0.3-0.4,0.2-0.7c-1.3-0.7-4-0.3-6.3-0.3c-1.6,0-3.7-0.5-4.1,0.8
		C18.2,1.4,18.9,1.2,19.4,1.2z"/>
	<path class="st1" d="M15.3,3.8c0.4-1,1.3-1.5,1.3-3c-0.3-0.1-0.6-0.3-1.1-0.2C14.6,1.1,14.3,3.1,15.3,3.8z"/>
	<path class="st1" d="M15.8,31.2c0,0.1,0,0.1,0,0.2v0C16,34.1,15.9,28.5,15.8,31.2z"/>
	<path class="st1" d="M15.4,24.4c-0.5-0.3-0.7,0.6-1,0.8c-0.1,1.2,0,2.4,0.3,3.2c-0.4,2.8-0.3-1.9-0.3,1.2c0,1.4-0.3,3.1,0.8,3.5
		c0.7-0.3,0.6-1.1,0.6-1.8C15.6,29.2,16.2,26.2,15.4,24.4z"/>
	<path class="st1" d="M30.5,9.3c1,0,0.8-1.4,0.8-2.2c0.1-1,0.5-2.8,0.5-4.4c-0.1-2-0.6-3.7-1.7-2.1C30.4,3.6,29.8,6.9,30.5,9.3z"/>
	<path class="st1" d="M31.2,33.1C31.4,33.2,31.5,33,31.2,33.1z"/>
	<path class="st1" d="M17.3,33.2c-0.3,0.1-0.4,0.4-0.3,0.8c0.9,0.2,2.1,0.1,3.3,0.1c1.1,0,2.5,0.3,3.1-0.3c-0.5-0.5-1.6-0.5-2.5-0.6
		C19.7,33.1,18.4,33.2,17.3,33.2z"/>
	<path class="st1" d="M16,4.6c-0.2,0.3-0.3,0.5-0.2,0.7c0,0.2,0.3,0.3,0.7,0.2c0.4,0,1.2,0.1,2.5,0.4c0.3,0.1,0.4,0,0.5-0.1
		c0-0.1-0.1-0.3-0.4-0.5c-0.1-0.1-0.2-0.2-0.4-0.3c-0.2-0.1-0.3-0.2-0.5-0.3c-0.2-0.1-0.3-0.2-0.5-0.3c-0.2-0.1-0.3-0.2-0.4-0.2
		c-0.2-0.1-0.4-0.2-0.6-0.1C16.4,4.2,16.2,4.3,16,4.6z"/>
	<path class="st1" d="M28.2,4.7c-0.1,0-0.3-0.1-0.4,0c-0.3,0.1-0.7,0.1-1,0.1c-0.5,0-1,0-1.6,0s-1.1,0-1.6-0.1
		c-0.5,0-0.9-0.1-1.2-0.1c-0.2-0.1-0.5,0-0.7,0C21.4,4.8,21.2,5,21,5.4c-0.1,0.2-0.2,0.4-0.2,0.5c0,0.1,0.1,0.2,0.1,0.3
		c0.1,0.1,0.2,0.1,0.3,0.1c0.1,0,0.2,0,0.3-0.1C21.8,6,22,5.9,22.3,5.9c0.2-0.1,0.6-0.1,1-0.2c0.5-0.1,1-0.1,1.6-0.1
		c0.5,0,1.1,0,1.6,0.1c0.4,0,0.6,0.1,0.8,0.3c0.1,0.1,0.2,0.4,0.2,0.7c0,0.2,0,0.5-0.1,0.7c-0.1,0.5-0.2,0.9-0.4,1.4
		c-0.1,0.3-0.2,0.6-0.3,0.9c-0.1,0.2-0.2,0.5-0.3,0.7c-0.1,0.2-0.2,0.4-0.3,0.6c-0.1,0.2-0.2,0.4-0.4,0.5c-0.3-0.3-0.6-0.6-0.9-0.9
		s-0.6-0.6-0.8-0.9c-0.3-0.3-0.5-0.5-0.7-0.7c-0.2-0.2-0.3-0.4-0.4-0.5c-0.4-0.5-0.8-0.5-1.2-0.3c-0.3,0.2-0.4,0.3-0.4,0.5
		c0,0.2,0.1,0.3,0.3,0.3C21.8,9,22,9.1,22.3,9.2c0.2,0.1,0.4,0.2,0.6,0.4c0.3,0.3,0.7,0.6,1.1,1c0.4,0.4,0.8,0.8,1.2,1.3
		c-0.4,0.5-0.9,0.9-1.4,1.3c-0.4,0.4-0.9,0.7-1.4,0.9c-0.5,0.3-1,0.5-1.5,0.6c-0.6,0.2-1.1,0.3-1.7,0.4c-0.2,0-0.3,0.1-0.4,0.2
		c-0.1,0.1-0.1,0.2-0.1,0.4c0,0.1,0.1,0.3,0.3,0.3c0.1,0.1,0.4,0.1,0.6,0.1c0.7,0,1.5-0.2,2.2-0.5c0.7-0.3,1.3-0.6,1.9-1.1
		c0.5-0.4,0.9-0.7,1.2-1.1s0.7-0.7,1-1c0.2,0.3,0.5,0.5,0.7,0.8c0.2,0.3,0.4,0.5,0.6,0.7c0.3,0.4,0.6,0.8,0.8,1.1s0.4,0.5,0.6,0.8
		c0.1,0.2,0.3,0.3,0.5,0.5c0.1,0.1,0.2,0.2,0.3,0.3c0.2,0.2,0.5,0.2,0.9,0.2c0.3,0,0.5-0.1,0.8-0.2c0.1,0.1,0.3,0.1,0.4,0.2
		c0-0.1,0-0.3,0-0.4l0,0c0.3-0.2,0.4-0.3,0.4-0.4c0-0.1-0.1-0.1-0.3-0.3l0,0c0.2-1.9,0.4-4.5-1.3-4.7c-0.3,1.2-0.3,2.6-0.2,4
		c-0.1-0.1-0.2-0.1-0.3-0.2c-0.2-0.1-0.3-0.2-0.5-0.3c-0.5-0.3-1-0.7-1.5-1.1c-0.5-0.4-1-0.9-1.5-1.4c0.3-0.3,0.5-0.7,0.7-1
		c0.2-0.3,0.4-0.7,0.5-1.1c0.1-0.2,0.2-0.4,0.3-0.7s0.2-0.5,0.3-0.8c0.1-0.3,0.2-0.5,0.2-0.7c0.1-0.2,0.1-0.3,0.1-0.5
		c0-0.2,0.1-0.4,0.1-0.6c0.1-0.2,0.1-0.5,0.2-0.7c0.1-0.2,0.1-0.3,0-0.5c0-0.2-0.1-0.3-0.2-0.4C28.5,4.9,28.3,4.8,28.2,4.7z"/>
	<path class="st1" d="M32,22.7c-0.1-0.1-0.2-0.1-0.3-0.1c-0.1,0-0.3-0.1-0.4-0.1c0.1-0.2,0.1-0.3,0.2-0.5c0-0.9,0.1-2.1-0.1-2.9
		c-1.9-1.5-1.6,1.4-1.2,3c0,0-0.1,0-0.1,0c-0.7-0.3-1.3-0.7-2-1.1c-0.7-0.4-1.3-0.9-2.1-1.4c-0.4-0.3-0.7-0.5-1-0.7
		c-0.3-0.2-0.5-0.4-0.6-0.5c-0.1-0.1-0.3-0.3-0.4-0.4c-0.1-0.1-0.2-0.3-0.2-0.4c-0.1-0.2-0.3-0.3-0.5-0.3c-0.2,0-0.4,0.3-0.6,0.7
		c-0.2,0.3-0.5,0.7-0.9,1.2c-0.5,0.5-1.1,0.9-1.7,1.3c-0.7,0.4-1.4,0.8-2.2,1.2c-0.7,0.3-1.4,0.6-2.2,0.7c0-1.1-0.1-2.3,0-3.1
		c0.1-0.5,0.7-0.5,0.7-1c-0.1-0.4-0.5-0.8-0.7-1.3c-0.1,0-0.1-0.1-0.2-0.1c0,0,0-0.3-0.1-0.7c0,0,0,0,0,0c0.1,0.1,0.4,0.1,0.6-0.1
		c0.2-0.2,0.4-0.4,0.6-0.5c0.2-0.2,0.4-0.3,0.7-0.5c0.2-0.2,0.5-0.4,0.8-0.6c0.3-0.2,0.6-0.5,1-0.8c0.1-0.1,0.1-0.1,0.2-0.2
		c0-0.1,0-0.1,0-0.2c0-0.1-0.1-0.1-0.1-0.1c-0.1,0-0.1,0-0.2,0c-0.4,0.2-0.8,0.4-1.2,0.6c-0.4,0.2-0.7,0.3-0.9,0.4
		C17,14,16.8,14,16.7,14.1c-0.2,0.1-0.5,0.1-0.7,0.1c-0.1,0-0.3,0.1-0.4,0.2c0-1.6,0.1-3.4,0.1-3.4l0-0.8c0.3,0,0.6,0,1,0
		c0.5,0,1,0,1.5,0.1c0.3,0,0.5,0,0.5-0.2c0-0.2-0.1-0.3-0.4-0.4c-0.3-0.1-0.6-0.3-1-0.4S16.7,9,16.3,8.9c-0.2-0.1-0.4-0.1-0.6-0.1
		l0.1-3C15.7,5.4,15.5,5,15,5c-0.3,0.8,0,2-0.1,3c0,0.4-0.4,0.4-0.5,0.8v11.6c0,0.9-0.2,2.2,0.3,2.9v0c0.1,0.1,0.2,0.3,0.3,0.3
		c0,0,0,0,0.1,0c0,0,0,0,0,0c0.3,0.1,0.7,0,1.3-0.2c0.4-0.1,0.8-0.3,1.3-0.5c0.5-0.2,0.9-0.4,1.4-0.7c0.5-0.3,1-0.7,1.6-1.1
		c0.6-0.4,1.3-1,2.1-1.6c0.2-0.1,0.3-0.3,0.4-0.3c0.1-0.1,0.2-0.1,0.3-0.2c0.1,0,0.2,0,0.3,0c0.2,0.1,0.3,0.1,0.5,0.2
		c0.1,0,0.3,0.2,0.6,0.4c0.3,0.2,0.7,0.5,1.1,0.8c0.4,0.3,0.9,0.7,1.3,1.1c0.5,0.4,0.9,0.7,1.3,1c0.3,0.3,0.6,0.5,0.9,0.7
		c0.2,0.1,0.4,0.3,0.6,0.3c0.1,3.4-0.3,1.4,0.2,4.9l-0.5,0c-0.7-0.1-1.3-0.1-1.8-0.1c-0.5,0-1-0.1-1.5-0.1c-0.5,0-0.9,0-1.3,0
		c-0.4,0-0.8,0-1.2,0v-1.1c0-0.4,0-0.8,0-1.3c0.5,0,1,0,1.6,0c0.4,0,0.8,0.1,1.1,0.1c0.3,0.1,0.6,0.1,0.7,0c0.2-0.1,0.3-0.2,0.4-0.4
		c0.2-0.4,0.2-0.6-0.2-0.5c-0.1,0-0.3,0-0.5,0c-0.2,0-0.3,0-0.5,0c-0.2,0-0.4,0-0.6,0s-0.5,0-0.7,0s-0.5,0-0.7,0c-0.2,0-0.5,0-0.6,0
		c0-0.4,0-0.8,0-1.1s0-0.7,0-1c0.7,0,1.2,0,1.5,0c0.3,0,0.6,0.1,0.8,0.1c0.5,0.1,0.8,0.1,1-0.2c0.1-0.2,0.2-0.4,0.1-0.5
		c0-0.1-0.2-0.2-0.5-0.3c-0.1,0-0.3-0.1-0.5-0.1c-0.2,0-0.5,0-0.8,0c-0.4,0-0.8,0-1.3,0c-0.5,0-1.2,0-2,0.1c-0.2,0-0.4,0-0.5,0h-0.4
		c-0.1,0-0.2,0-0.3,0c-0.1,0-0.2,0-0.2-0.1c-0.2,0-0.4,0-0.6,0c-0.2,0-0.4,0.1-0.6,0.2c-0.2,0.1-0.3,0.2-0.5,0.3
		c-0.1,0.1-0.2,0.2-0.1,0.4c0.1,0.2,0.2,0.4,0.4,0.4c0.2,0,0.5,0,0.8-0.1c0.2-0.1,0.4-0.1,0.6-0.1c0.2,0,0.4-0.1,0.6-0.1
		c0.2,0,0.4,0,0.6-0.1c0.2,0,0.5,0,0.8,0c0,0.3,0,0.7,0,1c0,0.4,0,0.7,0,1.1c-0.7,0-1.2,0-1.6,0c-0.2,0-0.5,0-0.7-0.1
		c-0.2-0.1-0.5-0.1-0.7,0c-0.3,0.1-0.5,0.3-0.7,0.6C19.1,25.8,19,26,19,26.1c0,0.1,0,0.2,0,0.2c0.1,0.1,0.2,0.1,0.4,0.1
		c0.3,0,0.5-0.1,0.8-0.1c0.3-0.1,0.6-0.1,1.1-0.2c0.4-0.1,1-0.1,1.7-0.2c0,0.5,0,0.9,0,1.3v1c-0.5,0-1.1,0.1-1.8,0.1L19,28.6
		c-0.3,0-0.6,0.1-0.8,0.1c-0.2,0-0.4,0-0.5,0c-0.2,0-0.4,0-0.5,0.1c-0.1,0-0.2,0.1-0.3,0.1c-0.1,0.1-0.2,0.1-0.2,0.2
		c-0.1,0.1-0.2,0.2-0.2,0.3c-0.1,0.1-0.1,0.3-0.1,0.5c0.1,0.1,0.2,0.2,0.3,0.3c0.2,0.1,0.4,0.1,0.5,0.1c0.2,0,0.5-0.1,0.7-0.2
		c0.3-0.1,0.6-0.3,1-0.3c0.5-0.1,0.9-0.2,1.5-0.4c0.5-0.1,1.1-0.2,1.6-0.3c0.6-0.1,1-0.1,1.4-0.1c0.5,0,0.9,0,1.4,0.1
		c0.5,0.1,1,0.1,1.4,0.2c0.4,0.1,0.9,0.2,1.3,0.3c0.3,0.1,0.7,0.2,1,0.4c0.4,0.2,0.7,0.3,1,0.3c0.2,0,0.3-0.1,0.5-0.2
		c0.1,0.3,0.2,0.4,0.3,0.7c-0.5,0.7-0.1,2.3-1,2.5c-0.8,0-1.8,0.1-2.4-0.1c0.1-0.4,0.2-0.8-0.1-1H26c-0.1,0.9-0.8,1.2-0.9,2.1
		c1.7-0.1,3.7,0.2,5.3-0.1c0.4-0.5,0.7-0.8,0.9-0.8c-0.1-0.1-0.3-0.5-0.3-1.9c0-0.6,0.3-1.1,0.3-1.7c0.2-2.1-0.3-4.3-0.1-6
		c0.2-0.1,0.4-0.2,0.6-0.3c0.1-0.1,0.2-0.2,0.3-0.3C32.1,22.8,32.1,22.7,32,22.7z"/>
</g>
<g class="st2">
	<path class="st1" d="M52.9,0.3l0.2,7.2h-0.7c-0.3-1.8-1.1-3.3-2.3-4.4c-1.2-1.1-2.5-1.7-3.9-1.7c-1.1,0-1.9,0.3-2.6,0.9
		c-0.6,0.6-1,1.3-1,2c0,0.4,0.1,0.9,0.3,1.3c0.3,0.5,0.8,1,1.5,1.5C45,7.5,46.2,8.1,48,9c2.5,1.2,4.3,2.4,5.1,3.5
		c0.9,1.1,1.3,2.4,1.3,3.8c0,1.8-0.7,3.4-2.1,4.7c-1.4,1.3-3.2,2-5.4,2c-0.7,0-1.3-0.1-1.9-0.2c-0.8-0.2-1.5-0.5-2.3-0.8
		c-0.5-0.2-0.9-0.3-1.3-0.3c-0.3,0-0.6,0.1-0.9,0.3c-0.3,0.2-0.6,0.6-0.8,1h-0.6v-8.2h0.6c0.5,2.3,1.4,4.1,2.7,5.3
		c1.3,1.2,2.8,1.8,4.3,1.8c1.2,0,2.1-0.3,2.9-1c0.7-0.7,1.1-1.4,1.1-2.3c0-0.5-0.1-1-0.4-1.5c-0.3-0.5-0.7-1-1.2-1.4
		c-0.6-0.4-1.5-1-2.9-1.7c-2-1-3.4-1.8-4.3-2.5c-0.8-0.6-1.5-1.4-2-2.3c-0.5-0.9-0.7-1.8-0.7-2.8c0-1.7,0.6-3.2,1.9-4.4
		C42.4,0.9,44,0.3,46,0.3c0.7,0,1.4,0.1,2,0.3c0.6,0.2,1.2,0.4,1.8,0.7c0.7,0.3,1.2,0.5,1.5,0.5c0.2,0,0.5-0.1,0.7-0.3
		c0.2-0.2,0.3-0.6,0.4-1.2L52.9,0.3z"/>
	<path class="st1" d="M67.8,21.9v0.6H56.4v-0.6h0.7c0.6,0,1.1-0.1,1.5-0.3c0.3-0.2,0.5-0.4,0.6-0.8c0.1-0.3,0.2-0.9,0.2-2V4.5
		c0-1.1-0.1-1.8-0.2-2.1c-0.1-0.3-0.4-0.5-0.7-0.7c-0.4-0.2-0.8-0.3-1.4-0.3h-0.7V0.8h11.4v0.6h-0.7c-0.6,0-1.1,0.1-1.5,0.3
		c-0.3,0.2-0.5,0.4-0.7,0.8c-0.1,0.3-0.2,0.9-0.2,2v14.3c0,1.1,0.1,1.8,0.2,2.1c0.1,0.3,0.4,0.5,0.7,0.7c0.4,0.2,0.8,0.3,1.4,0.3
		H67.8z"/>
	<path class="st1" d="M76.7,0.8l10.7,13.5V4.9c0-1.3-0.2-2.2-0.6-2.6c-0.5-0.6-1.4-0.9-2.6-0.9V0.8h7.2v0.6
		c-0.9,0.1-1.5,0.3-1.8,0.5c-0.3,0.2-0.6,0.5-0.7,0.9c-0.2,0.4-0.3,1.1-0.3,2.2V23H88L73.4,4.9v13.8c0,1.2,0.3,2.1,0.9,2.5
		c0.6,0.4,1.3,0.7,2,0.7h0.5v0.6H69v-0.6c1.2,0,2-0.3,2.5-0.7c0.5-0.5,0.7-1.3,0.7-2.4V3.4l-0.5-0.6c-0.5-0.6-0.9-1-1.2-1.1
		c-0.4-0.2-0.9-0.3-1.5-0.3V0.8H76.7z"/>
	<path class="st1" d="M104.9,0.5c3.5-0.1,6.3,0.9,8.4,3s3.2,4.8,3.2,8.1c0,2.8-0.8,5.2-2.4,7.3c-2.1,2.8-5.1,4.2-9,4.2
		s-6.9-1.3-9.1-4c-1.7-2.1-2.5-4.6-2.5-7.4c0-3.2,1.1-5.9,3.3-8.1S101.7,0.4,104.9,0.5z M105.1,1.5c-2,0-3.5,1-4.5,3
		c-0.8,1.7-1.3,4.1-1.3,7.2c0,3.7,0.7,6.4,2,8.2c0.9,1.2,2.2,1.9,3.8,1.9c1.1,0,2-0.3,2.8-0.8c0.9-0.7,1.7-1.8,2.2-3.3
		c0.5-1.5,0.8-3.5,0.8-5.9c0-2.9-0.3-5-0.8-6.4s-1.2-2.4-2-3C107.1,1.8,106.1,1.5,105.1,1.5z"/>
</g>
<g class="st2">
	<path class="st1" d="M44.6,27.3l0.2,1.9h-0.2c-0.2-0.5-0.4-0.8-0.6-1.1c-0.4-0.4-0.9-0.5-1.4-0.5c-0.8,0-1.4,0.3-1.8,0.9
		c-0.3,0.6-0.5,1.2-0.5,1.9c0,0.6,0.1,1.1,0.3,1.6c0.2,0.4,0.5,0.8,0.9,1.1c0.3,0.2,0.7,0.3,1.1,0.3c0.2,0,0.4,0,0.7-0.1
		c0.2-0.1,0.4-0.1,0.6-0.3v-1.8c0-0.3,0-0.5-0.1-0.6c0-0.1-0.1-0.2-0.2-0.2c-0.2-0.1-0.3-0.1-0.5-0.1v-0.2h2.4v0.2h-0.1
		c-0.2,0-0.4,0.1-0.5,0.2c-0.1,0.1-0.1,0.3-0.1,0.7v1.9c-0.3,0.2-0.7,0.3-1,0.4c-0.4,0.1-0.7,0.1-1.1,0.1c-1.2,0-2.1-0.4-2.7-1.1
		c-0.5-0.6-0.7-1.3-0.7-2c0-1.2,0.6-2.3,1.7-2.9c0.7-0.4,1.4-0.5,2.2-0.3c0.3,0.1,0.5,0.1,0.8,0.2c0.1,0,0.2,0.1,0.3,0.1
		c0.1,0,0.1,0,0.1-0.1c0.1-0.1,0.1-0.2,0.1-0.3L44.6,27.3z"/>
	<path class="st1" d="M50.9,31.8l0.1,0l-0.5,1.7h-4.7v-0.2H46c0.3,0,0.4-0.1,0.6-0.3c0.1-0.1,0.1-0.3,0.1-0.7v-3.9
		c0-0.4,0-0.6-0.1-0.7c-0.1-0.1-0.3-0.2-0.5-0.2h-0.2v-0.2h2.8v0.2c-0.3,0-0.6,0-0.7,0.1c-0.1,0-0.2,0.1-0.3,0.2
		c0,0.1-0.1,0.3-0.1,0.7v3.8c0,0.2,0,0.3,0.1,0.5c0,0.1,0.1,0.1,0.2,0.1c0.1,0,0.3,0,0.7,0h0.4c0.5,0,0.8,0,1-0.1
		c0.2-0.1,0.4-0.2,0.5-0.4C50.6,32.4,50.8,32.1,50.9,31.8z"/>
	<path class="st1" d="M54.6,27.3c0.8,0,1.5,0.3,2.1,0.9c0.6,0.6,0.9,1.4,0.9,2.3c0,0.9-0.3,1.7-0.9,2.3c-1.1,1.2-3,1.2-4.2,0.1
		c0,0-0.1-0.1-0.1-0.1c-0.6-0.6-0.9-1.4-0.9-2.3c0-1,0.3-1.8,1-2.4C53.1,27.5,53.8,27.2,54.6,27.3z M54.5,27.6c-0.5,0-1,0.2-1.3,0.6
		c-0.4,0.5-0.6,1.2-0.6,2.2c0,1,0.2,1.8,0.6,2.3c0.3,0.4,0.8,0.6,1.3,0.6c0.6,0,1.1-0.2,1.4-0.7c0.4-0.4,0.6-1.2,0.6-2.1
		c0-1-0.2-1.8-0.6-2.3C55.6,27.8,55.1,27.6,54.5,27.6L54.5,27.6z"/>
	<path class="st1" d="M62.2,30.4c0.4,0.1,0.7,0.2,1,0.4c0.3,0.3,0.4,0.6,0.4,1c0,0.3-0.1,0.6-0.3,0.9c-0.2,0.3-0.5,0.5-0.8,0.6
		c-0.3,0.1-0.8,0.2-1.5,0.2h-2.9v-0.2h0.2c0.3,0,0.4-0.1,0.5-0.2c0.1-0.1,0.1-0.3,0.1-0.7v-4c0-0.4,0-0.6-0.1-0.7
		c-0.1-0.1-0.3-0.2-0.5-0.2h-0.2v-0.2h2.6c0.4,0,0.8,0,1.2,0.1c0.4,0.1,0.8,0.3,1,0.6c0.2,0.3,0.4,0.6,0.4,1c0,0.3-0.1,0.6-0.3,0.8
		C62.8,30.1,62.5,30.3,62.2,30.4z M59.8,30.2c0.1,0,0.2,0,0.4,0c0.1,0,0.3,0,0.5,0c0.4,0,0.8,0,1-0.1c0.2-0.1,0.4-0.2,0.5-0.4
		c0.1-0.2,0.2-0.4,0.2-0.6c0-0.4-0.2-0.7-0.4-0.9c-0.3-0.3-0.7-0.4-1.3-0.4c-0.3,0-0.5,0-0.8,0.1L59.8,30.2z M59.8,33.1
		c0.3,0.1,0.7,0.1,1,0.1c0.5,0,1-0.1,1.2-0.4c0.3-0.2,0.4-0.6,0.4-0.9c0-0.2-0.1-0.5-0.2-0.7c-0.1-0.2-0.4-0.4-0.6-0.5
		c-0.3-0.1-0.7-0.2-1.1-0.2c-0.2,0-0.3,0-0.5,0c-0.1,0-0.2,0-0.3,0V33.1z"/>
	<path class="st1" d="M68.3,31.5h-2.4l-0.4,1c-0.1,0.2-0.1,0.4-0.2,0.5c0,0.1,0.1,0.2,0.1,0.2c0.1,0.1,0.3,0.1,0.6,0.1v0.2h-1.9
		v-0.2c0.3,0,0.4-0.1,0.5-0.2c0.2-0.1,0.3-0.4,0.5-0.9l2.2-5h0.2l2.1,5.1c0.2,0.4,0.3,0.7,0.5,0.8c0.2,0.1,0.4,0.2,0.6,0.2v0.2h-2.4
		v-0.2c0.2,0,0.4-0.1,0.5-0.1c0.1-0.1,0.1-0.2,0.1-0.3c0-0.2-0.1-0.4-0.2-0.6L68.3,31.5z M68.2,31.1l-1-2.5l-1.1,2.5L68.2,31.1z"/>
	<path class="st1" d="M76,31.8l0.1,0l-0.5,1.7h-4.7v-0.2h0.2c0.3,0,0.4-0.1,0.6-0.3c0.1-0.1,0.1-0.3,0.1-0.7v-3.9
		c0-0.4,0-0.6-0.1-0.7c-0.1-0.1-0.3-0.2-0.5-0.2h-0.2v-0.2h2.8v0.2c-0.3,0-0.6,0-0.7,0.1c-0.1,0-0.2,0.1-0.3,0.2
		c0,0.1-0.1,0.3-0.1,0.7v3.8c0,0.2,0,0.3,0.1,0.5c0,0.1,0.1,0.1,0.2,0.1c0.1,0,0.3,0,0.7,0h0.4c0.5,0,0.8,0,1-0.1
		c0.2-0.1,0.4-0.2,0.5-0.4C75.8,32.4,75.9,32.1,76,31.8z"/>
	<path class="st1" d="M83.9,27.3l0.1,2.1h-0.1c-0.2-0.6-0.5-1.1-0.8-1.3c-0.4-0.3-0.8-0.4-1.2-0.4c-0.8,0-1.6,0.5-1.9,1.3
		c-0.2,0.5-0.3,1.1-0.3,1.7c0,0.5,0.1,1,0.3,1.4c0.2,0.4,0.4,0.7,0.8,0.9c0.4,0.2,0.8,0.3,1.2,0.3c0.4,0,0.7-0.1,1.1-0.3
		c0.3-0.2,0.6-0.5,1-1l0.1,0.1c-0.3,0.5-0.7,0.9-1.1,1.2c-0.4,0.3-0.9,0.4-1.5,0.4c-1,0-1.8-0.4-2.4-1.1c-0.4-0.6-0.6-1.3-0.6-2
		c0-0.6,0.1-1.2,0.4-1.7c0.3-0.5,0.6-0.9,1.1-1.2c0.5-0.3,1-0.4,1.6-0.4c0.5,0,0.9,0.1,1.3,0.3c0.1,0.1,0.2,0.1,0.3,0.1
		c0.1,0,0.2,0,0.2-0.1c0.1-0.1,0.1-0.2,0.2-0.3L83.9,27.3z"/>
	<path class="st1" d="M88.7,31.5h-2.4l-0.4,1c-0.1,0.2-0.1,0.3-0.2,0.5c0,0.1,0.1,0.2,0.1,0.2c0.1,0.1,0.3,0.1,0.6,0.1v0.2h-1.9
		v-0.2c0.3,0,0.4-0.1,0.5-0.2c0.2-0.1,0.3-0.4,0.5-0.9l2.2-5h0.2l2.1,5.1c0.2,0.4,0.3,0.7,0.5,0.8c0.2,0.1,0.4,0.2,0.6,0.2v0.2h-2.4
		v-0.2c0.2,0,0.4-0.1,0.5-0.1c0.1-0.1,0.1-0.2,0.1-0.3c0-0.2-0.1-0.4-0.2-0.6L88.7,31.5z M88.6,31.1l-1-2.5l-1.1,2.5H88.6z"/>
	<path class="st1" d="M93.1,30.7v1.8c0,0.4,0,0.6,0.1,0.7c0.1,0.1,0.3,0.2,0.5,0.2H94v0.2h-2.6v-0.2h0.2c0.3,0,0.4-0.1,0.6-0.3
		c0.1-0.1,0.1-0.3,0.1-0.7v-3.9c0-0.4,0-0.6-0.1-0.7c-0.1-0.1-0.3-0.2-0.5-0.2h-0.2v-0.2h2.2c0.4,0,0.9,0,1.3,0.2
		c0.3,0.1,0.6,0.3,0.8,0.6c0.2,0.3,0.3,0.6,0.3,1c0,0.5-0.2,0.9-0.5,1.2c-0.3,0.3-0.8,0.5-1.4,0.5c-0.2,0-0.3,0-0.5,0
		C93.5,30.7,93.3,30.7,93.1,30.7z M93.1,30.4c0.2,0,0.3,0.1,0.4,0.1c0.1,0,0.2,0,0.3,0c0.3,0,0.6-0.1,0.8-0.4
		c0.2-0.3,0.4-0.6,0.3-0.9c0-0.3-0.1-0.5-0.2-0.7c-0.1-0.2-0.3-0.4-0.5-0.5c-0.2-0.1-0.4-0.2-0.7-0.2c-0.2,0-0.4,0-0.6,0.1V30.4z"/>
	<path class="st1" d="M99.2,33.4v0.2h-2.6v-0.2h0.2c0.3,0,0.4-0.1,0.6-0.2c0.1-0.1,0.1-0.3,0.1-0.7v-4c0-0.2,0-0.4-0.1-0.6
		c0-0.1-0.1-0.2-0.2-0.2c-0.1-0.1-0.3-0.1-0.4-0.1h-0.2v-0.2h2.6v0.2H99c-0.2,0-0.4,0.1-0.5,0.2c-0.1,0.1-0.1,0.3-0.1,0.7v4
		c0,0.2,0,0.4,0.1,0.6c0,0.1,0.1,0.2,0.2,0.2c0.1,0.1,0.3,0.1,0.4,0.1L99.2,33.4z"/>
	<path class="st1" d="M104.7,27.4l0.1,1.4h-0.2c0-0.2-0.1-0.4-0.1-0.5c-0.1-0.2-0.2-0.3-0.4-0.4c-0.2-0.1-0.4-0.1-0.6-0.1h-0.9v4.7
		c0,0.4,0,0.6,0.1,0.7c0.1,0.1,0.3,0.2,0.5,0.2h0.2v0.2h-2.6v-0.2h0.2c0.3,0,0.4-0.1,0.6-0.2c0.1-0.1,0.1-0.3,0.1-0.7v-4.7h-0.7
		c-0.2,0-0.4,0-0.6,0.1c-0.2,0.1-0.3,0.2-0.4,0.3c-0.1,0.2-0.2,0.4-0.2,0.7h-0.2l0.1-1.4L104.7,27.4z"/>
	<path class="st1" d="M108.5,31.5h-2.4l-0.4,1c-0.1,0.2-0.1,0.3-0.2,0.5c0,0.1,0.1,0.2,0.1,0.2c0.1,0.1,0.3,0.1,0.6,0.1v0.2h-1.9
		v-0.2c0.3,0,0.4-0.1,0.5-0.2c0.2-0.1,0.3-0.4,0.5-0.9l2.2-5h0.2l2.1,5.1c0.2,0.4,0.3,0.7,0.5,0.8c0.2,0.1,0.4,0.2,0.6,0.2v0.2h-2.4
		v-0.2c0.2,0,0.4-0.1,0.5-0.1c0.1-0.1,0.1-0.2,0.1-0.3c0-0.2-0.1-0.4-0.2-0.6L108.5,31.5z M108.4,31.1l-1-2.5l-1.1,2.5H108.4z"/>
	<path class="st1" d="M116.3,31.8l0.1,0l-0.5,1.7h-4.7v-0.2h0.2c0.3,0,0.4-0.1,0.6-0.3c0.1-0.1,0.1-0.3,0.1-0.7v-4
		c0-0.4,0-0.6-0.1-0.7c-0.1-0.1-0.3-0.2-0.5-0.2h-0.2v-0.2h2.8v0.2c-0.3,0-0.6,0-0.7,0.1c-0.1,0-0.2,0.1-0.3,0.2
		c0,0.1-0.1,0.3-0.1,0.7v3.8c0,0.2,0,0.3,0.1,0.5c0,0.1,0.1,0.1,0.2,0.1c0.1,0,0.3,0,0.7,0h0.4c0.5,0,0.8,0,1-0.1
		c0.2-0.1,0.4-0.2,0.5-0.4C116,32.4,116.2,32.1,116.3,31.8z"/>
</g>
</svg>
