<?xml version="1.0" encoding="utf-8"?>
<!-- Generator: Adobe Illustrator 26.2.1, SVG Export Plug-In . SVG Version: 6.00 Build 0)  -->
<svg version="1.1" id="Layer_1" xmlns="http://www.w3.org/2000/svg" xmlns:xlink="http://www.w3.org/1999/xlink" x="0px" y="0px"
	 viewBox="0 0 134.8 34.3" style="enable-background:new 0 0 134.8 34.3;" xml:space="preserve">
<style type="text/css">
	.st0{opacity:0.7;fill:#FFFFFF;}
	.st1{opacity:0.7;}
	.st2{fill:#FFFFFF;}
</style>
<path class="st0" d="M1.9,17.2c0-7.2,5.8-13,13-13.1V2.2C6.7,2.2,0,8.9,0,17.2s6.7,15,14.9,15.1v-1.9C7.7,30.3,1.9,24.4,1.9,17.2z"
	/>
<g class="st1">
	<path class="st2" d="M34.3,18c0-2.1,1.6-3.7,3.9-3.7c1.1,0,2.1,0.4,2.8,1.1l-0.7,0.7c-0.6-0.6-1.2-0.9-2-0.9
		c-1.6,0-2.9,1.2-2.9,2.8s1.2,2.8,2.9,2.8c0.8,0,1.5-0.3,2-0.9l0.7,0.7c-0.7,0.7-1.6,1.1-2.8,1.1C35.9,21.7,34.3,20.2,34.3,18z"/>
	<path class="st2" d="M47.7,21.7l-1.6-2.2c-0.1,0-0.3,0-0.5,0h-1.8v2.2h-1v-7.3h2.8c1.9,0,3,1,3,2.5c0,1.1-0.6,1.9-1.6,2.3l1.7,2.4
		H47.7z M47.7,16.9c0-1-0.7-1.6-2-1.6h-1.8v3.3h1.8C47,18.6,47.7,18,47.7,16.9z"/>
	<path class="st2" d="M53.6,19.1v2.5h-1v-2.5l-2.9-4.7h1.1l2.3,3.8l2.3-3.8h1L53.6,19.1z"/>
	<path class="st2" d="M63.8,16.9c0,1.6-1.1,2.5-3,2.5h-1.8v2.2h-1v-7.3h2.8C62.6,14.4,63.8,15.3,63.8,16.9z M62.7,16.9
		c0-1-0.7-1.6-2-1.6h-1.8v3.3h1.8C62,18.6,62.7,18,62.7,16.9z"/>
	<path class="st2" d="M67,15.3h-2.5v-0.9h6v0.9H68v6.4h-1V15.3z"/>
	<path class="st2" d="M71.5,18c0-2.1,1.6-3.7,3.9-3.7c2.2,0,3.9,1.6,3.9,3.7s-1.6,3.7-3.9,3.7C73.1,21.7,71.5,20.2,71.5,18z
		 M78.2,18c0-1.6-1.2-2.8-2.8-2.8c-1.6,0-2.8,1.2-2.8,2.8s1.2,2.8,2.8,2.8C76.9,20.8,78.2,19.6,78.2,18z"/>
</g>
<g class="st1">
	<path class="st2" d="M85,20.8l0.4-0.8c0.5,0.5,1.5,0.8,2.4,0.8c1.3,0,1.8-0.5,1.8-1.1c0-1.8-4.4-0.7-4.4-3.4c0-1.1,0.9-2.1,2.8-2.1
		c0.9,0,1.7,0.2,2.3,0.6L90,15.8c-0.6-0.4-1.4-0.6-2-0.6c-1.2,0-1.8,0.5-1.8,1.2c0,1.8,4.4,0.7,4.4,3.3c0,1.1-0.9,2.1-2.8,2.1
		C86.7,21.7,85.6,21.4,85,20.8z"/>
	<path class="st2" d="M92,18c0-2.1,1.6-3.7,3.9-3.7c2.2,0,3.9,1.6,3.9,3.7s-1.6,3.7-3.9,3.7C93.7,21.7,92,20.2,92,18z M98.7,18
		c0-1.6-1.2-2.8-2.8-2.8c-1.6,0-2.8,1.2-2.8,2.8s1.2,2.8,2.8,2.8C97.5,20.8,98.7,19.6,98.7,18z"/>
	<path class="st2" d="M101.3,18c0-2.1,1.6-3.7,3.9-3.7c1.1,0,2.1,0.4,2.8,1.1l-0.7,0.7c-0.6-0.6-1.2-0.9-2-0.9
		c-1.6,0-2.9,1.2-2.9,2.8s1.2,2.8,2.9,2.8c0.8,0,1.5-0.3,2-0.9l0.7,0.7c-0.7,0.7-1.6,1.1-2.8,1.1C102.9,21.7,101.3,20.2,101.3,18z"
		/>
	<path class="st2" d="M109.9,14.4h1v7.3h-1V14.4z"/>
	<path class="st2" d="M118.9,20.8v0.9h-5.3v-7.3h5.1v0.9h-4.1v2.2h3.6v0.9h-3.6v2.3H118.9z"/>
	<path class="st2" d="M122.5,15.3H120v-0.9h6v0.9h-2.5v6.4h-1V15.3z"/>
	<path class="st2" d="M131.2,19.1v2.5h-1v-2.5l-2.9-4.7h1.1l2.3,3.8l2.3-3.8h1L131.2,19.1z"/>
</g>
<path class="st0" d="M15.1,4.7c-6.9,0-12.5,5.6-12.5,12.5c0,6.9,5.6,12.5,12.5,12.5c6.9,0,12.5-5.6,12.5-12.5
	C27.6,10.3,22,4.7,15.1,4.7z M9.6,15.9l5.4-5.8l0,0l0.5-0.5l5.4,5l-1.9,2l-3.3-3.1l-2.7,2.9l3.3,3.1l-1.9,2l-5.4-5L9.6,15.9
	L9.6,15.9z M20.9,19.8l-5.4,5.8l0,0l-0.8,0.8l-5.4-5l1.9-2l3.3,3.1l2.7-2.9l-3.3-3.1l1.9-2l5.4,5L20.9,19.8L20.9,19.8z"/>
</svg>
