<?xml version="1.0" encoding="utf-8"?>
<!-- Generator: Adobe Illustrator 26.1.0, SVG Export Plug-In . SVG Version: 6.00 Build 0)  -->
<svg version="1.1" id="Layer_1" xmlns="http://www.w3.org/2000/svg" xmlns:xlink="http://www.w3.org/1999/xlink" x="0px" y="0px"
	 viewBox="0 0 512 512" style="enable-background:new 0 0 512 512;" xml:space="preserve">
<style type="text/css">
	.st0{opacity:0.6;fill:#FFFFFF;}
</style>
<path class="st0" d="M255.7,0C114.8,0,0.5,114.2,0.5,255.2s114.2,255.2,255.2,255.2s255.2-114.2,255.2-255.2S396.6,0,255.7,0z
	 M374,173.5c-3.8,40.4-20.5,138.3-28.9,183.5c-3.6,19.1-10.6,25.5-17.4,26.2c-14.8,1.4-26.1-9.8-40.4-19.2
	c-22.5-14.7-35.1-23.9-56.9-38.3c-25.2-16.6-8.9-25.7,5.5-40.6c3.8-3.9,69.1-63.3,70.3-68.7c0.2-0.7,0.3-3.2-1.2-4.5
	c-1.5-1.3-3.7-0.9-5.3-0.5c-2.3,0.5-38.1,24.2-107.6,71.1c-10.2,7-19.4,10.4-27.7,10.2c-9.1-0.2-26.6-5.2-39.7-9.4
	c-16-5.2-28.7-7.9-27.6-16.8c0.6-4.6,6.9-9.3,19-14.1c74.4-32.4,124-53.8,148.8-64.1c70.9-29.5,85.6-34.6,95.2-34.8
	c2.1,0,6.8,0.5,9.9,3c2,1.8,3.3,4.2,3.6,6.9C374.1,166.8,374.2,170.2,374,173.5z"/>
</svg>
