<?xml version="1.0" encoding="utf-8"?>
<!-- Generator: Adobe Illustrator 26.1.0, SVG Export Plug-In . SVG Version: 6.00 Build 0)  -->
<svg version="1.1" id="Layer_1" xmlns="http://www.w3.org/2000/svg" xmlns:xlink="http://www.w3.org/1999/xlink" x="0px" y="0px"
	 viewBox="0 0 512 512" style="enable-background:new 0 0 512 512;" xml:space="preserve">
<style type="text/css">
	.st0{opacity:0.6;fill:#FFFFFF;}
</style>
<path class="st0" d="M500.9,136.9c-5.9-22.1-23.2-39.5-45.1-45.4C416,80.7,256.4,80.7,256.4,80.7s-159.6,0-199.4,10.7
	c-22,5.9-39.2,23.3-45.1,45.4C1.3,176.9,1.3,260.5,1.3,260.5S1.3,344,12,384.1c5.9,22.1,23.2,38.8,45.1,44.7
	c39.8,10.7,199.4,10.7,199.4,10.7s159.6,0,199.4-10.7c22-5.9,39.2-22.6,45.1-44.7c10.7-40.1,10.7-123.6,10.7-123.6
	S511.6,176.9,500.9,136.9z M204.2,336.3V184.6l133.4,75.9L204.2,336.3L204.2,336.3z"/>
</svg>
