<?xml version="1.0" encoding="utf-8"?>
<!-- Generator: Adobe Illustrator 26.2.1, SVG Export Plug-In . SVG Version: 6.00 Build 0)  -->
<svg version="1.1" id="Layer_1" xmlns="http://www.w3.org/2000/svg" xmlns:xlink="http://www.w3.org/1999/xlink" x="0px" y="0px"
	 viewBox="0 0 134.8 34.3" style="enable-background:new 0 0 134.8 34.3;" xml:space="preserve">
<style type="text/css">
	.st0{opacity:0.7;}
	.st1{fill:#FFFFFF;}
	.st2{opacity:0.5;}
</style>
<g class="st0">
	<path class="st1" d="M78.3,9.8c0,0.6,0,1.1,0,1.6c0,1.4,0,2.9,0,4.3c0,0.3-0.1,0.4-0.3,0.4c-0.5,0-1.1,0-1.6,0
		c-0.2,0-0.3-0.1-0.3-0.3c0-3.1,0-6.1,0-9.2c0-0.2,0.1-0.3,0.3-0.3c0.4,0,0.8,0,1.2,0c0.3,0,0.4,0.1,0.6,0.3
		c1.4,1.6,2.7,3.3,3.9,5.1c0.1,0.1,0.1,0.2,0.2,0.3c0.1-0.1,0.1-0.2,0.1-0.4c0-1.7,0-3.3,0-5c0-0.2,0.1-0.3,0.3-0.3
		c0.5,0,1.1,0,1.6,0c0.2,0,0.2,0.1,0.2,0.3c0,3.1,0,6.1,0,9.2c0,0.2-0.1,0.3-0.3,0.3c-0.4,0-0.8,0-1.3,0c-0.2,0-0.4-0.1-0.5-0.3
		c-1.1-2-2.4-3.9-3.9-5.7C78.5,10,78.5,9.8,78.3,9.8z"/>
	<path class="st1" d="M126.7,11.2c0-1.5,0-3,0-4.5c0-0.3,0.1-0.3,0.3-0.3c2,0,3.9,0,5.9,0c0.3,0,0.4,0.1,0.3,0.3c0,0.4,0,0.8,0,1.2
		c0,0.3-0.1,0.3-0.3,0.3c-1.2,0-2.5,0-3.7,0c-0.3,0-0.4,0.1-0.3,0.3c0,0.4,0,0.8,0,1.2c0,0.3,0.1,0.3,0.3,0.3c1.1,0,2.1,0,3.2,0
		c0.3,0,0.3,0.1,0.3,0.3c0,0.4,0,0.8,0,1.2c0,0.2-0.1,0.3-0.3,0.3c-1.1,0-2.2,0-3.3,0c-0.3,0-0.3,0.1-0.3,0.3c0,0.6,0,1.1,0,1.7
		c0,0.3,0.1,0.3,0.3,0.3c1.4,0,2.7,0,4.1,0c0.3,0,0.3,0.1,0.3,0.3c0,0.4,0,0.9,0,1.3c0,0.2-0.1,0.2-0.2,0.2c-2.1,0-4.3,0-6.4,0
		c-0.2,0-0.2-0.1-0.2-0.3C126.7,14.2,126.7,12.7,126.7,11.2z"/>
	<path class="st1" d="M48,11.2c0-1.5,0-3,0-4.6c0-0.2,0.1-0.3,0.3-0.3c2,0,4,0,6,0c0.2,0,0.3,0.1,0.3,0.3c0,0.4,0,0.8,0,1.3
		c0,0.2-0.1,0.3-0.3,0.3c-1.2,0-2.5,0-3.7,0c-0.3,0-0.4,0.1-0.3,0.3c0,0.4,0,0.8,0,1.2c0,0.3,0.1,0.4,0.3,0.4c1.1,0,2.1,0,3.2,0
		c0.3,0,0.4,0.1,0.3,0.3c0,0.4,0,0.7,0,1.1c0,0.3-0.1,0.4-0.4,0.4c-1.1,0-2.1,0-3.2,0c-0.3,0-0.4,0.1-0.3,0.3c0,0.5,0,1.1,0,1.6
		c0,0.4,0,0.4,0.4,0.4c1.3,0,2.7,0,4,0c0.2,0,0.3,0.1,0.3,0.3c0,0.4,0,0.9,0,1.3c0,0.2,0,0.3-0.2,0.3c-2.1,0-4.3,0-6.4,0
		C48,16,48,15.9,48,15.7C48,14.2,48,12.7,48,11.2z"/>
	<path class="st1" d="M118.3,13.3c0.2-0.4,0.3-0.8,0.5-1.1c0.7-1.9,1.4-3.7,2-5.6c0.1-0.2,0.2-0.3,0.4-0.3c0.6,0,1.2,0,1.7,0
		c0.2,0,0.3,0,0.2,0.3c-0.9,2.5-1.8,4.9-2.9,7.4c-0.3,0.6-0.6,1.2-0.8,1.9c-0.1,0.2-0.2,0.2-0.4,0.2c-0.5,0-1.1,0-1.6,0
		c-0.2,0-0.3-0.1-0.3-0.2c-1.4-3-2.6-6.1-3.7-9.2c-0.1-0.2,0-0.2,0.2-0.2c0.6,0,1.3,0,1.9,0c0.2,0,0.3,0.1,0.3,0.2
		c0.6,1.9,1.3,3.8,2,5.7C117.9,12.6,118.1,13,118.3,13.3C118.2,13.3,118.3,13.3,118.3,13.3z"/>
	<path class="st1" d="M58.9,11.1c0-1.5,0-3,0-4.5c0-0.2,0.1-0.3,0.3-0.3c2,0,3.9,0,5.9,0c0.2,0,0.3,0.1,0.3,0.3c0,0.4,0,0.8,0,1.3
		c0,0.2-0.1,0.3-0.3,0.3c-1.2,0-2.5,0-3.7,0c-0.2,0-0.3,0.1-0.3,0.3c0,0.5,0,0.9,0,1.4c0,0.3,0.1,0.3,0.3,0.3c1.1,0,2.1,0,3.2,0
		c0.3,0,0.3,0.1,0.3,0.3c0,0.4,0,0.8,0,1.2c0,0.3-0.1,0.4-0.3,0.3c-1.1,0-2.1,0-3.2,0c-0.3,0-0.4,0.1-0.4,0.4c0,1.1,0,2.2,0,3.3
		c0,0.2-0.1,0.3-0.3,0.3c-0.5,0-1,0-1.5,0c-0.3,0-0.4-0.1-0.4-0.3C58.9,14.2,58.9,12.7,58.9,11.1z"/>
	<path class="st1" d="M99.1,6.3c1.2,0,2.5,0,3.7,0c0.2,0,0.3,0.1,0.3,0.3c0,0.4,0,0.9,0,1.3c0,0.2-0.1,0.3-0.3,0.3
		c-0.8,0-1.5,0-2.3,0c-0.3,0-0.4,0.1-0.4,0.4c0,2.4,0,4.7,0,7.1c0,0.3-0.1,0.4-0.4,0.4c-0.5,0-0.9,0-1.4,0C98,16,98,16,98,15.6
		c0-2.4,0-4.7,0-7.1c0-0.3-0.1-0.4-0.4-0.4c-0.8,0-1.5,0-2.3,0c-0.2,0-0.3-0.1-0.3-0.3c0-0.5,0-0.9,0-1.4c0-0.2,0.1-0.3,0.3-0.3
		C96.6,6.3,97.9,6.3,99.1,6.3z"/>
	<path class="st1" d="M89.1,11.1c0-1.5,0-3,0-4.5c0-0.3,0.1-0.4,0.4-0.4c0.5,0,1,0,1.5,0c0.2,0,0.3,0.1,0.3,0.3c0,3.1,0,6.1,0,9.2
		c0,0.2-0.1,0.3-0.3,0.3c-0.5,0-1.1,0-1.6,0c-0.2,0-0.3-0.1-0.3-0.3C89.1,14.2,89.1,12.7,89.1,11.1z"/>
	<path class="st1" d="M71.5,11.1c0,1.5,0,3.1,0,4.6c0,0.2-0.1,0.3-0.3,0.3c-0.5,0-1.1,0-1.6,0c-0.2,0-0.3,0-0.3-0.3
		c0-3.1,0-6.1,0-9.2c0-0.2,0.1-0.3,0.3-0.3c0.5,0,1.1,0,1.6,0c0.2,0,0.3,0.1,0.3,0.3C71.5,8.1,71.5,9.6,71.5,11.1z"/>
	<path class="st1" d="M109.5,11.2c0,1.5,0,3,0,4.5c0,0.2-0.1,0.3-0.3,0.3c-0.5,0-1.1,0-1.6,0c-0.2,0-0.3,0-0.3-0.3
		c0-3.1,0-6.1,0-9.2c0-0.2,0.1-0.3,0.3-0.3c0.6,0,1.1,0,1.7,0c0.2,0,0.3,0.1,0.3,0.3C109.5,8.1,109.5,9.6,109.5,11.2z"/>
	<path class="st1" d="M44.8,23.8c0,0.7,0.1,1.4,0.4,2c0.5,1,1.3,1.5,2.3,1.6c0.8,0.1,1.5,0,2.2-0.3c0.2-0.1,0.3-0.1,0.4,0.2
		c0.1,0.5,0.2,0.5-0.3,0.6c-0.8,0.3-1.5,0.4-2.3,0.3c-1.5-0.1-2.5-0.8-3.1-2.2c-0.6-1.3-0.6-2.7-0.2-4c0.7-1.9,2.2-2.8,4.2-2.6
		c0.5,0.1,1,0.2,1.5,0.4c0.2,0.1,0.3,0.2,0.2,0.4c0,0,0,0.1-0.1,0.1c-0.1,0.3-0.2,0.3-0.4,0.2c-0.9-0.5-1.9-0.5-2.8-0.2
		c-1.3,0.5-1.8,1.6-1.9,2.9C44.8,23.4,44.8,23.6,44.8,23.8z"/>
	<path class="st1" d="M96.9,24.2c0,1.2,0,2.3,0,3.5c0,0.3-0.1,0.4-0.3,0.4c-0.5,0-0.5,0-0.5-0.5c0-2.3,0-4.6,0-6.9
		c0-0.3-0.1-0.3-0.3-0.3c-0.7,0-1.4,0-2.1,0c-0.4,0-0.3-0.2-0.3-0.4c0-0.2,0-0.3,0.3-0.3c1.9,0,3.8,0,5.7,0c0.3,0,0.3,0.1,0.3,0.3
		c0,0.2,0.1,0.4-0.3,0.4c-0.7,0-1.4,0-2.1,0c-0.3,0-0.3,0.1-0.3,0.4C96.9,21.8,96.9,23,96.9,24.2z"/>
	<path class="st1" d="M120.3,23.8c0-1.3,0-2.6,0-3.9c0-0.2,0.1-0.3,0.3-0.3c0.5,0,0.5,0,0.5,0.5c0,2.3,0,4.6,0,6.8
		c0,0.3,0.1,0.3,0.3,0.3c1.1,0,2.2,0,3.3,0c0.3,0,0.3,0.2,0.3,0.4c0,0.2,0.1,0.4-0.3,0.4c-1.4,0-2.8,0-4.3,0c-0.2,0-0.3-0.1-0.3-0.3
		C120.3,26.4,120.3,25.1,120.3,23.8z"/>
	<path class="st1" d="M86,23.8c0,1.3,0,2.6,0,3.9c0,0.3,0,0.4-0.3,0.4c-0.6,0-0.5,0.1-0.5-0.5c0-2.5,0-5,0-7.5
		c0-0.5-0.1-0.4,0.5-0.5c0.3,0,0.4,0.1,0.4,0.4c0,0.5,0,1.1,0,1.6C86,22.3,86,23,86,23.8z"/>
	<path class="st1" d="M40.2,6.4c-0.8-0.2-1.6-0.2-2.5-0.2c-0.7,0-1.4,0.1-2.1,0.2c-0.2,0-0.3,0.1-0.3,0.4c0,2.5,0,5.1,0,7.6
		c0,0.5,0,0.9,0,1.4c0,0.1,0,0.2,0.2,0.3c1.6,0.2,3.2,0.4,4.8,0c1.8-0.4,3-1.5,3.4-3.3c0.2-0.7,0.2-1.5,0.1-2.3
		C43.6,8.2,42.3,6.8,40.2,6.4z M41.4,12.3c-0.3,0.9-0.9,1.5-1.8,1.8c-0.6,0.2-1.2,0.2-1.8,0.1c-0.2,0-0.2-0.1-0.2-0.3
		c0-0.9,0-1.9,0-2.8c0-0.9,0-1.8,0-2.8c0-0.2,0.1-0.3,0.3-0.3c0.5,0,0.9,0,1.4,0.1c1.3,0.2,2.1,0.9,2.3,2.2
		C41.6,11,41.6,11.7,41.4,12.3z"/>
	<path class="st1" d="M63.1,24.2c-0.6-1.5-1.2-2.9-1.9-4.4c0-0.1-0.1-0.2-0.2-0.2c-0.4-0.1-0.7,0-0.9,0.4c0,0.1-0.1,0.1-0.1,0.2
		c-1.1,2.4-2.1,4.9-3,7.4C57,28.1,57,28,57.5,28c0.3,0,0.4-0.1,0.5-0.4c0.2-0.5,0.4-1.1,0.6-1.6c0.1-0.3,0.2-0.4,0.5-0.3
		c0.6,0,1.1,0,1.7,0c0.6,0,1.2,0,1.8,0c0.2,0,0.3,0.1,0.4,0.2c0.2,0.5,0.3,1,0.5,1.5c0.2,0.6,0.2,0.6,0.9,0.6c0.3,0,0.3-0.1,0.2-0.3
		C64,26.6,63.6,25.4,63.1,24.2z M62.3,25c-1,0-2,0-3.1,0c-0.1,0-0.3,0-0.2-0.2c0.5-1.4,1-2.7,1.6-4.1c0,0,0,0,0.1-0.1
		c0.4,1,0.8,1.9,1.2,2.8c0.2,0.4,0.3,0.9,0.5,1.4C62.6,24.9,62.6,25,62.3,25z"/>
	<path class="st1" d="M112.8,27.6c-0.3-0.8-0.6-1.5-0.9-2.3c-0.7-1.8-1.4-3.7-2.3-5.5c0-0.1-0.1-0.2-0.2-0.2c-0.5-0.1-0.6,0-0.8,0.4
		c-0.1,0.1-0.1,0.2-0.2,0.3c-1.1,2.4-2,4.8-2.9,7.2c-0.2,0.5-0.2,0.5,0.3,0.5c0.3,0,0.4-0.1,0.5-0.4c0.2-0.6,0.4-1.1,0.6-1.7
		c0.1-0.2,0.1-0.2,0.3-0.2c1.2,0,2.5,0,3.7,0c0.2,0,0.2,0.1,0.3,0.2c0.2,0.6,0.4,1.1,0.6,1.7c0.1,0.3,0.2,0.5,0.6,0.4
		C113,28,113,28,112.8,27.6z M110.7,25c-1,0-2.1,0-3.1,0c-0.2,0-0.2,0-0.2-0.2c0.5-1.4,1.1-2.7,1.6-4.1c0,0,0,0,0.1-0.1
		c0.6,1.4,1.2,2.8,1.7,4.2C111,25,110.9,25,110.7,25z"/>
	<path class="st1" d="M75.8,19.7c-1.2-0.4-2.4-0.3-3.6-0.1c-0.2,0-0.2,0.2-0.2,0.3c0,1.3,0,2.6,0,3.8c0,1.2,0,2.4,0,3.6
		c0,0.6,0,0.6,0.6,0.6c0.2,0,0.3-0.1,0.3-0.3c0-0.9,0-1.8,0-2.7c0-0.2,0.1-0.3,0.3-0.3c0.7,0,1.4,0,2.1-0.1c0.8-0.1,1.5-0.3,2-1
		C78.1,22.3,77.5,20.2,75.8,19.7z M76.6,22.5c-0.1,0.6-0.4,1-0.9,1.2C75.2,24,74.6,24,74.1,24c-0.4,0-0.7,0-1.1,0
		c-0.2,0-0.2-0.1-0.2-0.3c0-0.5,0-1.1,0-1.6c0-0.5,0-1.1,0-1.6c0-0.2,0-0.3,0.2-0.3c0.7-0.1,1.4-0.1,2.1,0
		C76.3,20.6,76.8,21.4,76.6,22.5z"/>
</g>
<g class="st2">
	<path class="st1" d="M1.4,28.7c-0.1,0-0.1,0-0.2-0.1c-0.1-0.1-0.1-0.1-0.1-0.2V7.6c0-0.1,0.1-0.2,0.2-0.3L20,0.6c0.1,0,0.2,0,0.3,0
		c0.1,0.1,0.1,0.1,0.1,0.2v20.2c0,0.1-0.1,0.2-0.2,0.3L1.5,28.7C1.5,28.7,1.5,28.7,1.4,28.7z M1.7,7.8V28l18.1-7.2V1.3L1.7,7.8z"/>
</g>
<g class="st2">
	<path class="st1" d="M4.5,30.6c-0.1,0-0.1,0-0.2-0.1c-0.1-0.1-0.1-0.1-0.1-0.2V9.5c0-0.1,0.1-0.2,0.2-0.3l18.7-6.7
		c0.1,0,0.2,0,0.3,0c0.1,0.1,0.1,0.1,0.1,0.2v20.2c0,0.1-0.1,0.2-0.2,0.3L4.6,30.6C4.6,30.6,4.5,30.6,4.5,30.6z M4.8,9.7v20.2
		l18.1-7.2V3.1L4.8,9.7z"/>
</g>
<g class="st2">
	<path class="st1" d="M7.8,32.1c-0.1,0-0.1,0-0.2-0.1c-0.1-0.1-0.1-0.1-0.1-0.2V11c0-0.1,0.1-0.2,0.2-0.3L26.4,4c0.1,0,0.2,0,0.3,0
		c0.1,0.1,0.1,0.1,0.1,0.2v20.2c0,0.1-0.1,0.2-0.2,0.3L7.9,32.1C7.9,32.1,7.8,32.1,7.8,32.1z M8.1,11.2v20.2l18.1-7.2V4.7L8.1,11.2z
		"/>
</g>
<g class="st2">
	<path class="st1" d="M10.8,33.7c-0.1,0-0.1,0-0.2-0.1c-0.1-0.1-0.1-0.1-0.1-0.2V12.6c0-0.1,0.1-0.2,0.2-0.3l18.7-6.7
		c0.1,0,0.2,0,0.3,0c0.1,0.1,0.1,0.1,0.1,0.2V26c0,0.1-0.1,0.2-0.2,0.3l-18.7,7.4C10.9,33.7,10.8,33.7,10.8,33.7z M11.1,12.8V33
		l18.1-7.2V6.2L11.1,12.8z"/>
</g>
</svg>
