<?xml version="1.0" encoding="utf-8"?>
<svg version="1.1" xmlns="http://www.w3.org/2000/svg" xmlns:xlink="http://www.w3.org/1999/xlink" x="0px" y="0px" viewBox="0 0 121.5 25.4" style="enable-background:new 0 0 121.5 25.4;" xml:space="preserve">
<style type="text/css">.st0{fill:#7C7C7C;} .st1{opacity:0.7;fill:#7C7C7C;} .st2{fill:#939393;} .st3{fill:#868686;}</style>
<path class="st0" d="M51.4,17.9c0.1,0,0.2,0,0.3-0.2l3.3-6.2c0.4-0.7,0.8-1.5,1-1.9c0-0.1,0.1,0,0.1,0v10.9c0,0.1,0.1,0.2,0.2,0.2 h2.1c0.1,0,0.2-0.1,0.2-0.2V5.8c0-0.1-0.1-0.2-0.2-0.2h-2.7c-0.2,0-0.3,0.1-0.3,0.2L51,14.2c0,0,0,0-0.1,0l-4.3-8.4 c-0.1-0.1-0.2-0.2-0.3-0.2h-2.7c-0.1,0-0.2,0.1-0.2,0.2v14.7c0,0.1,0.1,0.2,0.2,0.2h2.1c0.1,0,0.2-0.1,0.2-0.2V9.6 c0,0,0.1-0.1,0.1,0c0.2,0.4,0.6,1.2,1,1.9l3.3,6.2c0.1,0.1,0.1,0.2,0.3,0.2L51.4,17.9L51.4,17.9z M83.7,5.2c0-0.1-0.1-0.2-0.2-0.2 h-2.1c-0.1,0-0.2,0.1-0.2,0.2v4.8c0,0.1,0,0.1-0.1,0.1c-0.9-0.4-1.8-0.6-2.7-0.6c-3,0-5.3,2.1-5.3,5.6c0,4,2.4,5.8,5.1,5.8 c1.3,0,2.3-0.3,3.3-1.1l1.7,0.9c0.3,0.1,0.5,0,0.5-0.3L83.7,5.2L83.7,5.2z M60.9,15.1c0,4.1,2.7,5.8,5.5,5.8c1.6,0,3.1-0.4,4.4-1.4 c0.1-0.1,0.1-0.2,0.1-0.3l-0.7-1.2c-0.1-0.1-0.2-0.1-0.3-0.1c-1.2,0.7-2.2,1-3.3,1c-1.4,0-3-0.7-3.2-3c0,0,0-0.1,0.1-0.1H71 c0.2,0,0.2-0.4,0.2-0.8c0-3.9-2.4-5.5-5-5.5C63.2,9.5,60.9,11.6,60.9,15.1L60.9,15.1z M96.4,18.9c-1,0-1.7-0.4-2.1-1.1 c-0.1-0.3-0.2-0.7-0.2-1.4V9.9c0-0.1-0.1-0.2-0.2-0.2h-2.1c-0.1,0-0.2,0.1-0.2,0.2v6.6c0,1,0.1,1.7,0.4,2.3 c0.7,1.4,2.1,2.1,3.9,2.1c1.4,0,2.4-0.3,3.5-1.1l1.7,0.9c0.3,0.1,0.5,0,0.5-0.3V9.9c0-0.1-0.1-0.2-0.2-0.2h-2.1 c-0.1,0-0.2,0.1-0.2,0.2v6.8c0,0.6,0,0.9-0.4,1.3C98.1,18.7,97.3,18.9,96.4,18.9L96.4,18.9z M75.6,15.1c0-2.4,1.3-3.6,2.9-3.6 c0.8,0,1.6,0.2,2.2,0.8c0.4,0.4,0.5,0.7,0.5,1.6v2.8c0,0.6,0,0.9-0.4,1.3c-0.8,0.7-1.6,0.9-2.3,0.9C77.2,18.9,75.6,18,75.6,15.1z M86.6,20.5c0,0.1,0.1,0.2,0.2,0.2h2.1c0.1,0,0.2-0.1,0.2-0.2V9.9c0-0.1-0.1-0.2-0.2-0.2h-2.1c-0.1,0-0.2,0.1-0.2,0.2V20.5z M63.4,13.8c0.2-1.4,1.3-2.3,2.8-2.3s2.5,1.1,2.5,2.4c0,0,0,0.1-0.1,0.1h-5.2C63.4,13.9,63.4,13.8,63.4,13.8z M86.4,6.4 c0,0.8,0.6,1.4,1.4,1.4s1.4-0.6,1.4-1.4S88.6,5,87.8,5S86.4,5.6,86.4,6.4z M119.1,20.5c0,0.1,0.1,0.2,0.2,0.2h2.1 c0.1,0,0.2-0.1,0.2-0.2v-6.5c0-1.2-0.2-2-0.5-2.7c-0.7-1.3-2-1.9-3.6-1.9c-1.5,0-2.8,0.5-3.9,1.5c-0.8-1-1.9-1.5-3.3-1.5 c-1.3,0-2.4,0.3-3.4,1.1l-1.7-0.9c-0.3-0.1-0.5,0-0.5,0.3v10.5c0,0.1,0.1,0.2,0.2,0.2h2.1c0.1,0,0.2-0.1,0.2-0.2v-6.8 c0-0.6,0-0.9,0.4-1.3c0.5-0.6,1.3-0.9,2.2-0.9c1.4,0,2.2,0.8,2.2,2.2v6.7c0,0.1,0.1,0.2,0.2,0.2h2.1c0.1,0,0.2-0.1,0.2-0.2v-6.8 c0-0.6,0-0.9,0.4-1.3c0.5-0.6,1.3-0.9,2.2-0.9c0.9,0,1.6,0.3,2,1c0.2,0.3,0.3,0.8,0.3,1.4L119.1,20.5L119.1,20.5z"/>
<path id="XMLID_00000088117883055742049030000014544587877162617019_" class="st1" d="M19.9,0c-0.2-0.1-0.3,0-0.3,0.2v20.6l9,4.5 c0.4,0.2,0.8,0,0.8-0.5V5c0-0.1,0-0.2-0.1-0.2L19.9,0z"/>
<path id="XMLID_00000096038927155026857900000015788329543914769304_" class="st2" d="M9.8,15.9l9.7-15.7C19.6,0,19.8,0,19.9,0
	l9.3,4.7c0.1,0.1,0.2,0.2,0.1,0.3l-9.7,15.8L9.8,15.9z"/>
<path id="XMLID_00000165952532074450675690000001325687953482194105_" class="st3" d="M1.1,0.4C0.5,0.1,0.3,0.4,0.6,0.9l9.2,14.9 l9.8,4.9L9.9,4.9c0-0.1-0.1-0.1-0.2-0.2L1.1,0.4z"/>
<path id="XMLID_00000182488407772204523320000007939682874224314013_" class="st0" d="M9.8,24.8c0,0.5-0.4,0.7-0.8,0.5L0.5,21 C0.2,20.9,0,20.5,0,20.1V0.5C0,0.2,0.2,0,0.5,0.2l9.2,4.6c0.1,0,0.1,0.1,0.1,0.2L9.8,24.8L9.8,24.8z"/>
</svg>
