<?xml version="1.0" encoding="utf-8"?>
<!-- Generator: Adobe Illustrator 26.2.1, SVG Export Plug-In . SVG Version: 6.00 Build 0)  -->
<svg version="1.1" id="Layer_1" xmlns="http://www.w3.org/2000/svg" xmlns:xlink="http://www.w3.org/1999/xlink" x="0px" y="0px"
	 viewBox="0 0 134.8 34.3" style="enable-background:new 0 0 134.8 34.3;" xml:space="preserve">
<style type="text/css">
	.st0{opacity:0.4;fill:#FFFFFF;}
	.st1{opacity:0.5;fill:#FFFFFF;}
	.st2{opacity:0.6;fill:#FFFFFF;}
	.st3{opacity:0.7;fill:#FFFFFF;}
</style>
<path class="st0" d="M22.9,24.6h-8.8v8.8h8.8V24.6z"/>
<path class="st1" d="M29,12.8H14.1v8.8H29h2.7v-8.8H29z"/>
<path class="st2" d="M40.6,1H14.1v8.8h26.5V1z"/>
<path class="st1" d="M11.1,12.8H2.3v8.8h8.8V12.8z"/>
<path class="st3" d="M49.4,33.4h6.9V20h13.2v-5.7H56.3V6.7h14.6V1H49.4V33.4z"/>
<path class="st3" d="M74.3,6.7h9.9v26.8H91V6.7h9.9V1H74.3V6.7z"/>
<path class="st3" d="M111.7,1H104l10,16.2l-10.1,16.2h7.9l6.6-11.1h0.3l6.6,11.1h7.9l-10.1-16.2L132.8,1h-7.7l-6.6,11h-0.3L111.7,1z
	"/>
</svg>
