<?xml version="1.0" encoding="utf-8"?>
<!-- Generator: Adobe Illustrator 26.2.1, SVG Export Plug-In . SVG Version: 6.00 Build 0)  -->
<svg version="1.1" id="Layer_1" xmlns="http://www.w3.org/2000/svg" xmlns:xlink="http://www.w3.org/1999/xlink" x="0px" y="0px"
	 viewBox="0 0 134.8 34.3" style="enable-background:new 0 0 134.8 34.3;" xml:space="preserve">
<style type="text/css">
	.st0{opacity:0.7;}
	.st1{fill:#FFFFFF;}
</style>
<g class="st0">
	<path class="st1" d="M19.9,5.9c-1-0.3-2-0.4-3-0.4c-0.8,0-1.6,0.1-2.4,0.3c-0.1,0-0.2,0.1-0.3,0c-0.1-0.1,0-0.2,0.1-0.3
		c0.8-1.4,1.6-2.8,2.4-4.2c0.1-0.2,0.2-0.4,0.3-0.6c0.1-0.2,0.2-0.2,0.3,0c0.4,0.8,0.8,1.5,1.3,2.3C19,4,19.5,4.8,20,5.7
		c0,0.1,0.2,0.1,0.1,0.2C20,6,19.9,5.9,19.9,5.9z"/>
	<path class="st1" d="M26.7,17c0.2,5-4.2,10.1-10.4,9.6c-4.2-0.3-9.2-4-8.8-10.5c0.3-4.2,4-9.2,10.5-8.7C22.5,7.7,26.8,11.6,26.7,17
		z"/>
	<path class="st1" d="M47.1,16.1c-2.2,0-4.4,0-6.6,0c-0.4,0-0.6-0.1-0.7-0.5c-0.1-0.5-0.1-1.1,0-1.6c0.1-0.4,0.4-0.5,0.7-0.5
		c3.4,0,6.7,0,10.1,0c0.6,0,1.2,0,1.8,0c0.4,0,0.8-0.1,1.1-0.2c0.6-0.4,0.8-1,0.6-1.7c-0.2-0.8-0.6-1.1-1.3-1.1
		c-3.2-0.2-6.4,0-9.7-0.1c-0.6,0-1.1-0.1-1.6-0.3c-1.1-0.4-1.8-1.3-1.9-2.4c-0.1-1-0.1-1.9,0.1-2.9c0.2-1.2,0.9-1.9,2-2.3
		c0.5-0.2,1.1-0.3,1.7-0.3c4.2,0,8.4,0,12.6,0c0.5,0,0.7,0.2,0.7,0.7c0,0.4,0,0.7,0,1.1c0,0.6-0.2,0.7-0.8,0.7c-3.7,0-7.3,0-11,0
		c-0.4,0-0.9,0-1.3,0.1c-0.6,0.1-1,0.5-1,1.1c0,0.2-0.1,0.5,0,0.7c0.1,0.7,0.5,1.2,1.4,1.2c3,0,6,0,8.9,0c1,0,2.1,0.1,3,0.8
		c0.7,0.5,1.1,1.3,1.1,2.1c0.1,0.8,0.1,1.7,0,2.5c-0.1,1.1-0.7,2.1-1.9,2.5c-0.7,0.2-1.3,0.3-2,0.3C51.2,16.1,49.2,16.1,47.1,16.1z"
		/>
	<path class="st1" d="M88.8,16.1c-2,0-4,0-6,0c-1,0-1.9-0.3-2.6-1c-0.6-0.5-0.9-1.3-1-2.1c-0.1-0.4-0.1-0.9-0.1-1.3c0-3,0-6,0-8.9
		c0-0.5,0.2-0.7,0.7-0.7c0.5,0,1.1,0,1.6,0c0.4,0,0.6,0.1,0.6,0.6c0,2.8,0,5.6,0,8.4c0,0.4,0,0.7,0.1,1.1c0.2,0.9,0.9,1.3,1.9,1.3
		c3.6,0,7.2,0,10.8,0c0.6,0,0.8,0.2,0.8,0.8c0,0.4,0,0.8,0,1.1c0,0.5-0.2,0.6-0.7,0.6C92.9,16.1,90.8,16.1,88.8,16.1z"/>
	<path class="st1" d="M46.3,32.2c-1.4,0-2.9,0-4.3,0c-1.2,0-2.2-0.9-2.3-2.1c-0.2-1.6-0.1-3.1-0.1-4.7c0.1-1.6,0.8-2.6,2.7-2.6
		c2.8,0,5.6,0,8.4,0c0.4,0,0.5,0.1,0.5,0.5c0,1.2,0,1.2-1.2,1.2c-2.1,0-4.3,0-6.4,0c-0.4,0-0.7,0.1-1,0.1c-0.4,0.1-0.7,0.4-0.8,0.8
		c0,0.2-0.1,0.5-0.1,0.7c0,0.6,0,0.6,0.6,0.6c2.5,0,5,0,7.4,0c0.4,0,0.6,0.2,0.6,0.6c0,0.2,0,0.4,0,0.5c0,0.4-0.2,0.6-0.6,0.6
		c-2.5,0-5,0-7.5,0c-0.4,0-0.5,0.1-0.5,0.5c0.1,0.3,0.1,0.7,0.2,1c0.2,0.6,0.8,0.7,1.3,0.7c2.5,0,5.1,0,7.6,0c0.4,0,0.6,0.1,0.5,0.5
		c0,1.2,0,1.2-1.2,1.2C48.8,32.2,47.5,32.2,46.3,32.2z"/>
	<path class="st1" d="M59,22.7c1.4,0,2.9,0,4.3,0c0.3,0,0.5,0.1,0.5,0.5c0,1.4,0.2,1.3-1.3,1.3c-2.2,0-4.4,0-6.6,0
		c-0.5,0-1,0.1-1.3,0.5c-0.2,0.3-0.2,0.8-0.2,1.2c0,0.9,0,1.8,0,2.6c0,0.3,0,0.6,0.1,0.8c0.2,0.5,0.6,0.8,1.4,0.8c2.4,0,4.9,0,7.3,0
		c0.6,0,0.6,0,0.6,0.6c0,1.1,0,1.1-1.1,1.1c-2.6,0-5.3,0-7.9,0c-1.2,0-2.2-0.9-2.3-2.1c-0.2-1.6-0.1-3.1-0.1-4.7
		c0-0.9,0.3-1.8,1.1-2.3c0.4-0.2,0.7-0.4,1.2-0.4C56.1,22.7,57.6,22.7,59,22.7z"/>
	<path class="st1" d="M101.4,32.2c-1.1,0-2.2,0-3.3,0c-1.3,0-2.4-0.8-2.5-2.1c0-0.3-0.1-0.7-0.1-1c0-1.9,0-3.8,0-5.6
		c0-0.5,0.1-0.8,0.7-0.7c0.4,0.1,1-0.2,1.3,0.1c0.3,0.3,0.1,0.8,0.1,1.2c0,1.5,0,3,0,4.6c0,0.3,0,0.7,0.1,1c0.1,0.5,0.6,0.9,1.2,0.9
		c1.7,0,3.4,0,5.2,0c0.8,0,1.3-0.5,1.3-1.3c0-1.9,0-3.9,0-5.8c0-0.6,0.1-0.7,0.6-0.7c0.3,0,0.7,0,1,0c0.2,0,0.3,0.1,0.3,0.3
		c0,2.3,0.1,4.7,0,7c-0.1,1.3-0.9,2.1-2.3,2.1C103.8,32.2,102.6,32.2,101.4,32.2z"/>
	<path class="st1" d="M114.7,22.7c1.2,0,2.3,0,3.5,0c1.4,0,2.4,1,2.4,2.4c0,2.2,0,4.4,0,6.6c0,0.4-0.1,0.6-0.5,0.5
		c-0.3,0-0.6,0-0.9,0c-0.6,0-0.6-0.1-0.6-0.7c0-1.9,0-3.8,0-5.7c0-0.8-0.5-1.3-1.4-1.3c-1.6,0-3.1,0-4.7,0c-1.3,0-1.7,0.4-1.7,1.7
		c0,1.8,0,3.7,0,5.5c0,0.4-0.1,0.6-0.5,0.5c-0.2,0-0.5,0-0.7,0c-0.6,0-0.8,0-0.8-0.8c0-1.1,0-2.3,0-3.4c0-0.9,0-1.7,0-2.6
		c0-0.6,0.1-1.2,0.5-1.8c0.4-0.6,1.1-0.9,1.8-1C112.3,22.7,113.5,22.7,114.7,22.7z"/>
	<path class="st1" d="M89.7,22.7c1.4,0,2.9,0,4.3,0c0.6,0,0.6,0,0.6,0.6c0,1.2,0.1,1.1-1.1,1.1c-2.3,0-4.6,0-6.8,0
		c-0.4,0-0.8,0-1.1,0.4c-0.4,0.5-0.4,1.2-0.4,1.8c0,0.2,0.2,0.1,0.4,0.1c2.1,0,4.2,0,6.3,0c0.4,0,0.9,0,1.3,0c0.3,0,0.5,0.1,0.4,0.4
		c0,1.4,0.2,1.3-1.2,1.3c-2.3,0-4.5,0-6.8,0c-0.3,0-0.4,0.1-0.4,0.4c0,1,0,1.9,0,2.9c0,0.4-0.1,0.5-0.5,0.5c-0.3,0-0.6,0-0.9,0
		c-0.5,0-0.6-0.1-0.6-0.6c0-1.6,0-3.2,0-4.8c0-0.8,0-1.6,0.2-2.4c0.3-1,1.1-1.6,2.1-1.7C86.8,22.7,88.2,22.7,89.7,22.7z"/>
	<path class="st1" d="M14.3,28c1.1,0.2,2.1,0.4,3.1,0.4c0.8,0,1.6-0.1,2.4-0.3c0.1,0,0.2-0.1,0.3,0c0.1,0.1,0,0.2-0.1,0.3
		c-0.7,1.2-1.4,2.4-2.1,3.6c-0.2,0.4-0.4,0.8-0.6,1.2c-0.1,0.2-0.2,0.3-0.4,0c-0.9-1.6-1.8-3.3-2.8-4.9c0-0.1-0.2-0.1-0.1-0.2
		C14.2,28,14.3,28,14.3,28z"/>
	<path class="st1" d="M28.2,20c0.5-2,0.5-4,0-6c0.8,0.3,1.4,0.7,2,1.1c1,0.5,2,1.2,3,1.7c0.2,0.1,0.4,0.2,0.1,0.4
		c-1.6,0.9-3.3,1.8-4.9,2.8C28.4,20,28.4,20,28.2,20z"/>
	<path class="st1" d="M6.1,14c-0.6,2-0.6,4,0,6c-1-0.6-1.9-1-2.7-1.5c-0.8-0.4-1.6-0.9-2.3-1.3c-0.1-0.1-0.5-0.2-0.1-0.4
		c1.6-0.9,3.3-1.8,4.9-2.8C5.9,14.1,5.9,14.1,6.1,14z"/>
	<path class="st1" d="M27.1,11.3C26,9.5,24.6,8.1,22.8,7C23.9,6.7,25,6.4,26,6.1c0.7-0.2,1.5-0.4,2.2-0.6c0.4-0.1,0.4,0,0.3,0.3
		c-0.5,1.7-0.9,3.4-1.4,5.1c0,0.1,0,0.2,0,0.3C27.1,11.2,27.1,11.2,27.1,11.3z"/>
	<path class="st1" d="M7.2,11.2C7,11.2,7.1,11,7,10.9C6.7,9.6,6.3,8.3,6,7C5.9,6.6,5.8,6.2,5.7,5.8C5.6,5.5,5.7,5.4,6,5.5
		C7.7,6,9.4,6.4,11.1,6.9c0.1,0,0.3,0,0.3,0.1c0,0.1-0.1,0.2-0.2,0.2c-0.8,0.5-1.5,1-2.1,1.7C8.4,9.5,7.9,10.2,7.4,11
		C7.3,11.1,7.3,11.2,7.2,11.2z"/>
	<path class="st1" d="M5.8,28.5c-0.2,0-0.2-0.2-0.2-0.3C5.9,27.1,6.2,26,6.5,25c0.2-0.7,0.4-1.4,0.6-2c0-0.1,0-0.2,0.1-0.2
		c0.1,0,0.1,0.1,0.2,0.1c0.4,0.8,1,1.4,1.6,2.1c0.6,0.7,1.4,1.3,2.2,1.8c0.1,0.1,0.2,0.1,0.2,0.2c0,0.2-0.2,0.1-0.3,0.1
		c-1.7,0.5-3.5,1-5.2,1.4C5.9,28.5,5.9,28.5,5.8,28.5z"/>
	<path class="st1" d="M28.6,28.3c0,0.3-0.2,0.2-0.3,0.2c-0.9-0.2-1.8-0.5-2.8-0.7c-0.8-0.2-1.6-0.4-2.4-0.7c-0.1,0-0.2,0-0.2-0.1
		c0-0.1,0.1-0.1,0.2-0.2c0.8-0.4,1.4-1,2.1-1.6c0.7-0.6,1.3-1.4,1.8-2.2c0.1-0.1,0.1-0.3,0.2-0.2c0.2,0,0.1,0.2,0.1,0.3
		C27.7,24.7,28.2,26.4,28.6,28.3C28.6,28.2,28.6,28.2,28.6,28.3z"/>
	<path class="st1" d="M114.5,4.9c-0.4-1.7-1.6-2.7-3.5-2.7c-3.4,0-6.8,0-10.2,0c-2.3,0-3.6,1.5-3.7,3.6c-0.1,3.3,0,6.5,0,9.8
		c0,0.4,0.2,0.6,0.6,0.6c0.6,0,1.2,0,1.8,0c0.4,0,0.6-0.1,0.6-0.6c0-1.1,0-2.2,0-3.4c0-0.3,0.1-0.4,0.4-0.4c1.8,0,3.7,0,5.5,0
		c1.8,0,3.6,0,5.4,0c0.4,0,0.4,0.1,0.4,0.4c0,1.1,0,2.2,0,3.2c0,0.5,0.1,0.6,0.6,0.6c0.6,0,1.1,0,1.7,0c0.5,0,0.6,0,0.6-0.6
		c0-3.2,0-6.5,0-9.7C114.6,5.4,114.6,5.2,114.5,4.9z M111.7,8.9c0,0.3-0.1,0.3-0.4,0.3c-1.8,0-3.7,0-5.5,0c-1.8,0-3.6,0-5.4,0
		c-0.4,0-0.4-0.1-0.4-0.5c0-0.9,0-1.8,0.1-2.6c0.1-0.8,0.5-1.2,1.3-1.4c0.4-0.1,0.9-0.1,1.3-0.1c2.3,0,4.6,0,6.9,0
		c0.3,0,0.6,0.1,1,0.2c0.9,0.3,1.1,1,1.1,1.8C111.7,7.4,111.6,8.1,111.7,8.9z"/>
	<path class="st1" d="M128.5,11.1c0.4,0,0.8,0.1,1.1,0.1c0.7,0.1,1.2,0.5,1.4,1.2c0.1,0.4,0.1,0.7,0.1,1.1c0,0.7,0,1.3,0,2
		c0,0.3,0.1,0.5,0.5,0.5c0.6,0,1.2,0,1.7,0c0.5,0,0.7-0.2,0.7-0.7c0-0.7,0-1.5,0-2.2c0-1.5-0.5-2.7-2-3.3c1.1-0.4,1.7-1.1,1.9-2.1
		c0.2-0.9,0.1-1.8,0.1-2.7c0-0.3-0.1-0.7-0.3-1.1c-0.6-1.3-1.8-1.8-3.1-1.8c-4.4-0.1-8.7,0-13.1,0c-0.5,0-0.6,0.1-0.6,0.6
		c0,4.3,0,8.5,0,12.8c0,0.4,0.2,0.6,0.6,0.6c0.6,0,1.2,0,1.8,0c0.4,0,0.6-0.1,0.6-0.6c0-1.3,0-2.6,0-4c0-0.3,0.1-0.4,0.4-0.4
		C123,11.1,125.8,11.1,128.5,11.1z M119.9,8.2c0-1,0-2.1,0-3.1c0-0.3,0.1-0.4,0.4-0.4c1.5,0,3,0,4.6,0c1.4,0,2.8,0,4.2,0
		c0.3,0,0.7,0.1,1,0.1c0.6,0.1,0.9,0.5,1,1.2c0.1,0.5,0,1,0,1.5c-0.1,0.5-0.3,0.8-0.7,1c-0.4,0.1-0.7,0.2-1.1,0.2c-3,0-5.9,0-8.9,0
		C120,8.6,119.9,8.5,119.9,8.2z"/>
	<path class="st1" d="M68,16.1c1.7,0,3.5,0,5.2,0c2.2,0,3.6-1.5,3.7-3.6c0-2.3,0-4.6,0-6.8c0-0.4-0.1-0.8-0.3-1.2
		c-0.6-1.5-1.8-2.2-3.4-2.2c-3.4,0-6.7,0-10.1,0c-0.4,0-0.9,0-1.3,0.1c-0.7,0.2-1.4,0.5-1.9,1C59.2,4,59,5,59,6.1c0,1.6,0,3.2,0,4.8
		c0,0.7-0.1,1.4,0.1,2.2c0.2,0.8,0.4,1.5,1,2c0.7,0.7,1.6,1,2.6,1C64.4,16.1,66.2,16.1,68,16.1z M62,11.8c-0.2-1.7,0-3.3-0.1-4.9
		c0-0.4,0.1-0.8,0.2-1.1c0.3-0.7,0.9-1,1.8-1c1.3,0,2.7,0,4,0c1.3,0,2.6,0,4,0c0.4,0,0.9,0.1,1.3,0.3c0.6,0.3,0.8,0.9,0.8,1.5
		c0,1.8,0,3.5,0,5.3c0,1.2-0.7,1.7-2,1.8c-2.7,0-5.4,0-8.1,0C62.8,13.5,62.1,13,62,11.8z"/>
	<path class="st1" d="M134,25.2c-0.2-1.4-1.2-2.4-2.6-2.4c-2.9-0.1-5.8,0-8.8,0c-0.4,0-0.5,0.1-0.5,0.5c0,2.9,0,5.7,0,8.6
		c0,0.4,0.1,0.5,0.5,0.5c1.5,0,2.9,0,4.4,0c1.4,0,2.9,0,4.3,0c0.8,0,1.4-0.3,1.9-0.9c0.6-0.7,0.8-1.5,0.7-2.4
		C134.1,27.7,134.2,26.4,134,25.2z M132.1,26.9c0,0.8,0,1.5-0.1,2.3c-0.1,0.7-0.7,1.3-1.7,1.3c-1.9,0-3.9,0-5.8,0
		c-0.3,0-0.3-0.1-0.3-0.3c0-1.8,0-3.6,0-5.4c0-0.3,0.1-0.3,0.3-0.3c1,0,1.9,0,2.9,0c1,0,1.9,0,2.9,0c0.9,0,1.6,0.5,1.7,1.2
		C132.1,26.1,132.1,26.5,132.1,26.9z"/>
	<path class="st1" d="M74.8,22.7c-2.5,0-5,0-7.5,0c-0.4,0-0.8,0.1-1.1,0.3c-0.9,0.5-1.1,1.3-1.1,2.2c0,1.6-0.1,3.1,0.1,4.7
		c0.1,1.3,1.1,2.3,2.5,2.2c1.2,0,2.3,0,3.5,0c1.2,0,2.5,0,3.7,0c1.4,0,2.3-1,2.3-2.3c0-1.6,0-3.2,0-4.8
		C77.1,23.7,76.2,22.8,74.8,22.7z M75.1,25.9c0,1.1,0,2.2,0,3.3c0,0.8-0.4,1.3-1.3,1.3c-1.8,0-3.7,0-5.5,0c-0.7,0-1.2-0.3-1.3-1.2
		c-0.1-1.1,0-2.1-0.1-3.2c0-0.3,0.1-0.7,0.2-0.9c0.2-0.5,0.7-0.7,1.3-0.7c0.9,0,1.8,0,2.7,0c0.9,0,1.7,0,2.6,0
		C74.7,24.4,75.2,25,75.1,25.9z"/>
</g>
</svg>
