<?xml version="1.0" encoding="utf-8"?>
<!-- Generator: Adobe Illustrator 26.1.0, SVG Export Plug-In . SVG Version: 6.00 Build 0)  -->
<svg version="1.1" id="Layer_1" xmlns="http://www.w3.org/2000/svg" xmlns:xlink="http://www.w3.org/1999/xlink" x="0px" y="0px"
	 viewBox="0 0 512 512" style="enable-background:new 0 0 512 512;" xml:space="preserve">
<style type="text/css">
	.st0{opacity:0.6;fill:#FFFFFF;}
</style>
<path class="st0" d="M173.2,406.6c0,2.1-2.4,3.7-5.4,3.7c-3.4,0.3-5.8-1.3-5.8-3.7c0-2.1,2.4-3.7,5.4-3.7
	C170.5,402.6,173.2,404.2,173.2,406.6z M141.2,402c-0.7,2.1,1.3,4.4,4.4,5c2.7,1,5.8,0,6.4-2.1c0.6-2.1-1.3-4.4-4.4-5.4
	C144.9,398.9,141.9,399.9,141.2,402L141.2,402z M186.7,400.2c-3,0.7-5,2.7-4.7,5c0.3,2.1,3,3.4,6.1,2.7c3-0.7,5-2.7,4.7-4.7
	C192.4,401.2,189.7,399.9,186.7,400.2z M254.4,5.7c-142.8,0-252,108.4-252,251.2c0,114.2,71.9,211.9,174.5,246.2
	c13.2,2.4,17.8-5.8,17.8-12.5c0-6.4-0.3-41.6-0.3-63.2c0,0-72.1,15.4-87.2-30.7c0,0-11.7-30-28.6-37.7c0,0-23.6-16.2,1.6-15.9
	c0,0,25.6,2.1,39.7,26.6c22.5,39.7,60.3,28.3,75,21.5c2.4-16.5,9.1-27.9,16.5-34.7c-57.5-6.4-115.6-14.7-115.6-113.8
	c0-28.3,7.8-42.5,24.3-60.6c-2.7-6.7-11.4-34.3,2.7-69.9c21.5-6.7,71,27.8,71,27.8c20.6-5.8,42.7-8.8,64.6-8.8
	c21.9,0,44.1,3,64.6,8.8c0,0,49.5-34.6,71-27.8c14.1,35.7,5.4,63.2,2.7,69.9c16.5,18.2,26.6,32.4,26.6,60.6
	c0,99.3-60.6,107.3-118.2,113.8c9.5,8.1,17.5,23.6,17.5,47.8c0,34.7-0.3,77.6-0.3,86.1c0,6.7,4.7,14.8,17.8,12.5
	C443.2,468.8,513,371.1,513,256.9C513,114.1,397.2,5.7,254.4,5.7z M102.5,360.8c-1.3,1-1,3.4,0.7,5.4c1.6,1.6,4,2.4,5.4,1
	c1.3-1,1-3.4-0.7-5.4C106.2,360.2,103.8,359.4,102.5,360.8z M91.4,352.4c-0.7,1.3,0.3,3,2.4,4c1.6,1,3.7,0.7,4.4-0.7
	c0.7-1.3-0.3-3-2.4-4C93.7,351.1,92.1,351.4,91.4,352.4z M124.7,389.1c-1.6,1.3-1,4.4,1.3,6.4c2.4,2.4,5.4,2.7,6.7,1
	c1.3-1.3,0.7-4.4-1.3-6.4C129.1,387.8,126,387.4,124.7,389.1z M113,374c-1.6,1-1.6,3.7,0,6.1s4.4,3.4,5.8,2.4c1.6-1.3,1.6-4,0-6.4
	C117.3,373.7,114.6,372.6,113,374L113,374z"/>
</svg>
