<?xml version="1.0" encoding="utf-8"?>
<!-- Generator: Adobe Illustrator 26.2.1, SVG Export Plug-In . SVG Version: 6.00 Build 0)  -->
<svg version="1.1" id="Layer_1" xmlns="http://www.w3.org/2000/svg" xmlns:xlink="http://www.w3.org/1999/xlink" x="0px" y="0px"
	 viewBox="0 0 134.8 34.3" style="enable-background:new 0 0 134.8 34.3;" xml:space="preserve">
<style type="text/css">
	.st0{opacity:0.7;}
	.st1{fill:#FFFFFF;}
	.st2{opacity:0.5;fill:#FFFFFF;}
</style>
<g class="st0">
	<path class="st1" d="M55.2,14.7c0,2.8-2.1,4.5-5.4,4.5h-2.5v3.4h-2.9V10.2h5.4C53.1,10.2,55.2,11.9,55.2,14.7z M52.3,14.7
		c0-1.4-0.9-2.2-2.7-2.2h-2.3v4.3h2.3C51.4,16.9,52.3,16.1,52.3,14.7z"/>
	<path class="st1" d="M66,22.6l-2.4-3.5h-0.1H61v3.5h-2.9V10.2h5.4c3.3,0,5.4,1.7,5.4,4.5c0,1.9-0.9,3.2-2.6,3.9l2.8,4H66z
		 M63.3,12.5H61v4.3h2.3c1.8,0,2.7-0.8,2.7-2.2C66,13.3,65.1,12.5,63.3,12.5z"/>
	<path class="st1" d="M77.8,18.2v4.4h-2.9v-4.4l-4.8-8h3.1l3.3,5.5l3.3-5.5h2.8L77.8,18.2z"/>
	<path class="st1" d="M83.8,16.4c0-3.8,2.9-6.4,6.8-6.4c2.2,0,3.9,0.8,5.1,2.2l-1.9,1.7c-0.8-1-1.9-1.5-3.1-1.5c-2.3,0-4,1.6-4,4
		s1.7,4,4,4c1.2,0,2.3-0.5,3.1-1.5l1.9,1.7c-1.2,1.4-3,2.2-5.1,2.2C86.7,22.9,83.8,20.2,83.8,16.4z"/>
	<path class="st1" d="M101.4,12.5h-4v-2.3h10.9v2.3h-4v10.1h-2.9V12.5z"/>
	<path class="st1" d="M110.4,16.4c0-3.7,2.9-6.4,6.8-6.4c3.9,0,6.8,2.7,6.8,6.4s-2.9,6.4-6.8,6.4C113.3,22.9,110.4,20.1,110.4,16.4z
		 M121.1,16.4c0-2.4-1.7-4-3.9-4s-3.9,1.6-3.9,4s1.7,4,3.9,4S121.1,18.8,121.1,16.4z"/>
</g>
<path class="st2" d="M37.2,14.4c0-7.4-6-13.5-13.4-13.5v0h-0.1h-2.4h-3.1h0V2V4h0v4.8h-4.9h-3.1v3.1v15.9h0c0,3.1,2.5,5.6,5.6,5.6
	c3.1,0,5.6-2.5,5.6-5.5h2.2h0h0v0H24v0C31.3,27.7,37.2,21.7,37.2,14.4z M23.8,11.9c1.4,0,2.5,1.1,2.5,2.5s-1.1,2.5-2.5,2.5h-2.5
	v-5.1H23.8z M23.7,24.8h-5.4v1.9v1.2h0c-0.1,1.3-1.2,2.4-2.5,2.4c-1.4,0-2.5-1.1-2.5-2.5v0c0,0,0,0,0,0h0v-5V11.9h4.9V20h0v0h5.6
	c3.1,0,5.6-2.5,5.6-5.6s-2.5-5.6-5.6-5.6h-2.5V4h2.4c5.8,0,10.4,4.7,10.4,10.4S29.4,24.8,23.7,24.8z"/>
</svg>
