<?xml version="1.0" encoding="utf-8"?>
<!-- Generator: Adobe Illustrator 26.2.1, SVG Export Plug-In . SVG Version: 6.00 Build 0)  -->
<svg version="1.1" id="Layer_1" xmlns="http://www.w3.org/2000/svg" xmlns:xlink="http://www.w3.org/1999/xlink" x="0px" y="0px"
	 viewBox="0 0 134.8 34.3" style="enable-background:new 0 0 134.8 34.3;" xml:space="preserve">
<style type="text/css">
	.st0{opacity:0.7;}
	.st1{fill-rule:evenodd;clip-rule:evenodd;fill:#FFFFFF;}
</style>
<g class="st0">
	<path class="st1" d="M48.3,11.6c1.6,0,2.5,0.9,2.9,2.4h3.4c-0.6-3.4-3-5.3-6.3-5.3c-1.8,0-3.4,0.6-4.6,1.8C43,11.2,42.5,12,42.3,13
		c-0.2,0.9-0.3,2.3-0.3,4.2c0,1.8,0.1,3.2,0.3,4.2c0.2,0.9,0.7,1.8,1.4,2.5c1.3,1.2,2.8,1.8,4.6,1.8c3.3,0,5.7-1.9,6.3-5.3h-3.4
		c-0.4,1.4-1.3,2.4-2.9,2.4c-0.9,0-1.6-0.3-2.1-0.9c-0.7-0.7-0.8-1.5-0.8-4.7s0.1-4,0.8-4.7C46.7,11.9,47.4,11.6,48.3,11.6z"/>
	<path class="st1" d="M67.5,15.7L67.5,15.7v-0.1l0,0V15.7z M67.5,8.9L67.5,8.9v3.3v3.3h-3.4v3.3h3.4v-0.3l0,0v0.3l0,0v3.3v3.3h3.4
		l0,0v-3.3v-3.3v-3.3v-3.3V8.9l0,0H67.5L67.5,8.9z"/>
	<path class="st1" d="M58.4,25.6h3.4v-5.2v-1.7v-2.9V14V9h-3.4V25.6z"/>
	<path class="st1" d="M83.3,21.9c-0.5,0.5-1.2,0.9-2.1,0.9s-1.7-0.4-2.2-0.9c-0.7-0.7-0.8-1.5-0.8-4.7s0.2-4,0.8-4.7
		c0.5-0.5,1.3-0.9,2.2-0.9s1.7,0.4,2.1,0.9c0.7,0.7,0.8,1.5,0.8,4.7C84.1,20.4,83.9,21.2,83.3,21.9z M81.1,8.7c-2,0-3.5,0.7-4.7,1.8
		c-1.7,1.7-1.7,3.8-1.7,6.7s0,5,1.7,6.7c1.2,1.2,2.7,1.8,4.7,1.8s3.4-0.7,4.6-1.8c1.7-1.7,1.7-3.8,1.7-6.7s0-5-1.7-6.7
		C84.6,9.4,83.1,8.7,81.1,8.7z"/>
	<path class="st1" d="M97.6,16.2h-3.2v-4.4h3.2c1.5,0,2.4,0.9,2.4,2.2S99.1,16.2,97.6,16.2z M103.4,14c0-2.8-2.1-5.1-5.6-5.1h-6.7
		v16.7h3.4v-6.7h2.4l3.4,6.7h3.9l-3.8-7.2C101.9,17.8,103.4,16.3,103.4,14z"/>
	<path class="st1" d="M116.3,19.7c0,1.9-1.2,3.1-3,3.1s-3-1.2-3-3.1V8.9H107v11c0,3.5,2.8,5.9,6.3,5.9s6.3-2.3,6.3-5.9v-11h-3.3
		V19.7z"/>
	<path class="st1" d="M133.5,17.1c-0.7-0.7-1.7-1.1-3.3-1.3l-2-0.3c-0.7-0.1-1.3-0.4-1.6-0.7c-0.4-0.3-0.5-0.8-0.5-1.2
		c0-1.1,0.9-2.1,2.7-2.1c1.1,0,2.4,0.1,3.5,1.2l2.1-2c-1.5-1.4-3.2-1.9-5.6-1.9c-3.7,0-6,2.1-6,5.1c0,1.4,0.4,2.5,1.2,3.3
		c0.8,0.7,1.9,1.2,3.3,1.4l2.1,0.3c0.8,0.1,1.2,0.3,1.5,0.6c0.4,0.3,0.5,0.8,0.5,1.4c0,1.3-1.1,2.1-3,2.1c-1.6,0-3.1-0.4-4.2-1.4
		l-2.2,2.1c1.7,1.7,3.7,2.2,6.3,2.2c3.6,0,6.4-1.8,6.4-5.1C134.8,19.2,134.4,18,133.5,17.1z"/>
	<path class="st1" d="M0.2,29.3l3.5,3.5l3.5-3.5l-3.5-3.5L0.2,29.3z"/>
	<path class="st1" d="M31.5,5.1L28,1.7l-3.5,3.5L28,8.6L31.5,5.1z"/>
	<path class="st1" d="M19.3,20.7l-3.5,3.5l-3.5-3.5l-3.5-3.5l3.5-3.5l3.5-3.5l3.5,3.5l3.5,3.5L19.3,20.7z M29.7,17.2l-3.5-3.5
		l-3.5-3.5l-3.5-3.5l-3.5-3.5l-3.5,3.5l-3.5,3.5l-3.5,3.5l-3.5,3.5l3.5,3.5l3.5,3.5l3.5,3.5l3.5,3.5l3.5-3.5l3.5-3.5l3.5-3.5
		L29.7,17.2z"/>
	<path class="st1" d="M24.5,29.3l3.5,3.5l3.5-3.5L28,25.9L24.5,29.3z"/>
	<path class="st1" d="M7.1,5.1L3.7,1.7L0.2,5.1l3.5,3.5L7.1,5.1z"/>
</g>
</svg>
