<?xml version="1.0" encoding="utf-8"?>
<!-- Generator: Adobe Illustrator 26.2.1, SVG Export Plug-In . SVG Version: 6.00 Build 0)  -->
<svg version="1.1" id="Layer_1" xmlns="http://www.w3.org/2000/svg" xmlns:xlink="http://www.w3.org/1999/xlink" x="0px" y="0px"
	 viewBox="0 0 134.8 34.3" style="enable-background:new 0 0 134.8 34.3;" xml:space="preserve">
<style type="text/css">
	.st0{opacity:0.7;}
	.st1{fill:#FFFFFF;}
</style>
<g class="st0">
	<path class="st1" d="M31.8,20.7V23H20.9v-1.9l6.8-8.2h-6.7v-2.3h10.5v1.9l-6.8,8.2H31.8z"/>
	<path class="st1" d="M101.9,20.7V23h-9.6V10.6h9.4v2.3h-6.5v2.7h5.8v2.2h-5.8v2.9H101.9z"/>
	<path class="st1" d="M114.3,23l-2.2-3.5h-0.1h-2.3V23h-2.6V10.6h4.9c3,0,4.9,1.7,4.9,4.5c0,1.9-0.9,3.2-2.3,3.9l2.5,4H114.3z
		 M111.8,12.9h-2.1v4.3h2.1c1.6,0,2.4-0.8,2.4-2.2C114.2,13.7,113.4,12.9,111.8,12.9z"/>
	<polygon class="st1" points="84.1,10.6 80.4,15.9 76.7,10.6 74,10.6 74,23 77,23 77,15.1 80,19.4 80.4,19.4 80.8,19.4 83.8,15.1 
		83.8,23 86.8,23 86.8,10.6 	"/>
	<g>
		<path class="st1" d="M55.9,29.3v2h2.8V32h-2.8v2.3h-0.8v-5.6h4v0.7H55.9z"/>
		<path class="st1" d="M62,31.8v-3.2h0.8v3.2c0,1.2,0.6,1.8,1.6,1.8c1,0,1.6-0.6,1.6-1.8v-3.2h0.8v3.2c0,1.6-0.9,2.5-2.4,2.5
			C62.9,34.3,62,33.4,62,31.8z"/>
		<path class="st1" d="M75.4,28.6v5.6h-0.7L71.3,30v4.2h-0.8v-5.6h0.7l3.4,4.2v-4.2H75.4z"/>
		<path class="st1" d="M79.4,28.6h2.2c1.7,0,2.8,1.1,2.8,2.8c0,1.7-1.2,2.8-2.8,2.8h-2.2V28.6z M81.5,33.5c1.3,0,2.1-0.9,2.1-2.1
			c0-1.3-0.8-2.1-2.1-2.1h-1.4v4.2H81.5z"/>
	</g>
	<path class="st1" d="M66.9,13c-2.5-6.9-5.1-9.4-5.2-9.5l0,0l-0.1,0c-0.1,0-0.2-0.1-0.3-0.1c0.1-1-0.2-1.7-0.7-2.3
		c-0.9-0.9-2.3-0.8-2.3-0.8l0,0c-0.9,0.2-1.5,0.6-1.9,1.3c-0.5,1-0.2,2.2,0,2.7c-0.2,0.2-0.3,0.5-0.5,0.7C53,3.1,50.1,4.3,49,4.8
		c-0.1-0.2-0.3-0.5-0.5-0.8c0.2-0.5,0.5-1.7,0-2.7c-0.3-0.7-1-1.1-1.9-1.3l0,0c-0.1,0-1.4-0.1-2.3,0.8c-0.5,0.5-0.8,1.3-0.7,2.3
		c-0.1,0-0.2,0.1-0.3,0.1l-0.1,0l0,0c-0.1,0.1-2.5,2.5-5,8.9c-1.2,1.1-2,2.8-2,4.6c0,3.7,2.9,6.4,6.8,6.4c3.9,0,6.8-2.7,6.8-6.4
		c0-0.9-0.2-1.8-0.5-2.6V14h5.9c-0.4,0.8-0.6,1.8-0.6,2.8c0,3.7,2.9,6.4,6.8,6.4c3.9,0,6.8-2.7,6.8-6.4C68.1,15.3,67.6,14,66.9,13z
		 M56.9,1.9c0.2-0.5,0.7-0.8,1.4-0.9c0.1,0,1.1-0.1,1.8,0.6c0.4,0.4,0.5,0.9,0.5,1.6c-1.1-0.3-2.1-0.2-2.9,0.2
		c-0.3,0.1-0.6,0.3-0.8,0.5C56.7,3.3,56.6,2.5,56.9,1.9z M57.9,3.9c0.9-0.4,2-0.4,3.3,0.1c0.3,0.3,2.3,2.6,4.4,7.8
		c-1.2-0.9-2.7-1.4-4.4-1.4c-2.1,0-3.9,0.8-5.1,2V5.7C56.3,5.5,56.8,4.4,57.9,3.9z M55.6,5.5C55.6,5.6,55.6,5.6,55.6,5.5L55.6,5.5
		l0,7.7c0,0,0,0.1-0.1,0.1h-6.3V5.4C50.1,4.9,52.9,3.8,55.6,5.5z M44.7,1.2c0.6-0.6,1.6-0.6,1.8-0.6c0.7,0.2,1.2,0.5,1.4,0.9
		c0.3,0.6,0.2,1.4,0,1.9c-0.2-0.2-0.5-0.4-0.8-0.5c-0.8-0.4-1.8-0.4-2.9-0.2C44.2,2.1,44.3,1.6,44.7,1.2z M42.9,20.8
		c-2.2,0-3.9-1.6-3.9-4c0-2.4,1.7-4,3.9-4c2.2,0,3.9,1.6,3.9,4C46.8,19.2,45.1,20.8,42.9,20.8z M42.9,10.4c-1.4,0-2.7,0.4-3.8,1
		c2.1-5.1,4.1-7.3,4.4-7.6c1.3-0.5,2.4-0.6,3.3-0.1c1.1,0.5,1.6,1.6,1.7,1.9V13C47.3,11.4,45.3,10.4,42.9,10.4z M61.3,20.8
		c-2.2,0-3.9-1.6-3.9-4c0-2.4,1.7-4,3.9-4c2.2,0,3.9,1.6,3.9,4C65.2,19.2,63.5,20.8,61.3,20.8z"/>
</g>
</svg>
